<svg width="630" height="434" viewBox="0 0 630 434" fill="none" xmlns="http://www.w3.org/2000/svg">
<rect opacity="0.3" x="395.718" y="26.4748" width="218.925" height="143.325" rx="14.5688" stroke="#C1BFB8" stroke-width="2.3625"/>
<path d="M352.8 97.7436C352.8 95.134 354.915 93.0186 357.525 93.0186H465.7C468.309 93.0186 470.425 95.134 470.425 97.7436V112.744C470.425 115.353 468.309 117.469 465.7 117.469H357.525C354.915 117.469 352.8 115.353 352.8 112.744V97.7436Z" fill="#CECBC4"/>
<path d="M365.498 103.199L368.225 110.744H369.769L372.489 103.199H371.014L369.056 109.325H368.959L366.986 103.199H365.498ZM378.061 103.082C376.967 103.082 376.192 103.538 375.839 104.397H375.707V103.199H374.316V113.277H375.742V109.546H375.874C376.178 110.391 376.967 110.868 378.061 110.868C379.798 110.868 380.905 109.629 380.905 107.664V106.286C380.905 104.321 379.798 103.082 378.061 103.082ZM377.597 104.314C378.76 104.314 379.5 105.13 379.5 106.425V107.553C379.5 108.847 378.76 109.671 377.597 109.671C376.441 109.671 375.707 108.854 375.707 107.553V106.425C375.707 105.13 376.441 104.314 377.597 104.314ZM382.781 110.744H384.166V106.321C384.166 105.103 384.941 104.293 386.097 104.293C387.211 104.293 387.73 104.902 387.73 106.196V110.744H389.121V105.85C389.121 104.037 388.235 103.054 386.595 103.054C385.467 103.054 384.616 103.58 384.221 104.514H384.124V103.199H382.781V110.744ZM400.812 107.442V106.397C400.812 105.11 401.56 104.279 402.729 104.279C403.892 104.279 404.647 105.103 404.647 106.397V107.442C404.647 108.73 403.892 109.56 402.729 109.56C401.56 109.56 400.812 108.73 400.812 107.442ZM402.695 113.575C404.785 113.575 406.038 112.509 406.038 110.737V103.199H404.667V104.397H404.536C404.231 103.573 403.401 103.075 402.307 103.075C400.528 103.075 399.4 104.314 399.4 106.286V107.574C399.4 109.539 400.521 110.785 402.259 110.785C403.366 110.785 404.218 110.28 404.515 109.47H404.647V110.73C404.647 111.865 403.961 112.488 402.716 112.488C401.76 112.488 401.048 112.107 400.902 111.519H399.532C399.677 112.792 400.881 113.575 402.695 113.575ZM410.551 110.868C411.617 110.868 412.427 110.425 412.786 109.65H412.918V110.751H414.24V105.594C414.24 104.009 413.202 103.096 411.381 103.096C409.762 103.096 408.578 103.94 408.44 105.186H409.796C409.976 104.591 410.551 104.244 411.354 104.244C412.323 104.244 412.863 104.729 412.863 105.594V106.259L410.883 106.362C409.125 106.466 408.156 107.255 408.156 108.598C408.156 109.962 409.111 110.868 410.551 110.868ZM410.98 109.712C410.094 109.712 409.54 109.262 409.54 108.536C409.54 107.802 410.066 107.387 411.07 107.331L412.863 107.241V108.037C412.863 108.999 412.06 109.712 410.98 109.712ZM418.497 101.137V103.241H416.504V104.383H418.497V108.46C418.497 110.079 419.341 110.771 421.272 110.771C421.563 110.771 422.657 110.744 422.809 110.716V109.581C422.643 109.602 421.722 109.615 421.369 109.615C420.407 109.615 419.888 109.207 419.888 108.46V104.383H422.85V103.241H419.867V101.137H418.497ZM428.429 104.189C429.571 104.189 430.25 104.999 430.25 106.342H426.554C426.554 104.992 427.26 104.189 428.429 104.189ZM430.264 108.75C430.077 109.366 429.405 109.747 428.512 109.747C427.322 109.747 426.554 108.93 426.554 107.657V107.318H431.613V106.501C431.613 104.355 430.416 103.054 428.443 103.054C426.484 103.054 425.19 104.362 425.19 106.349V107.498C425.19 109.643 426.401 110.889 428.519 110.889C430.146 110.889 431.392 110.017 431.592 108.75H430.264ZM440.937 103.199H439.594L438.701 109.048H438.542L437.441 103.213H436.209L435.109 109.048H434.95L434.057 103.199H432.714L434.306 110.744H435.586L436.791 105.089H436.867L438.064 110.744H439.345L440.937 103.199ZM444.467 110.868C445.533 110.868 446.343 110.425 446.702 109.65H446.834V110.751H448.156V105.594C448.156 104.009 447.118 103.096 445.297 103.096C443.678 103.096 442.494 103.94 442.356 105.186H443.712C443.892 104.591 444.467 104.244 445.27 104.244C446.239 104.244 446.779 104.729 446.779 105.594V106.259L444.799 106.362C443.041 106.466 442.072 107.255 442.072 108.598C442.072 109.962 443.027 110.868 444.467 110.868ZM444.896 109.712C444.01 109.712 443.456 109.262 443.456 108.536C443.456 107.802 443.982 107.387 444.986 107.331L446.779 107.241V108.037C446.779 108.999 445.976 109.712 444.896 109.712ZM451.631 113.443C453.167 113.443 453.873 112.848 454.531 110.972L457.299 103.199H455.825L453.852 109.373H453.756L451.769 103.199H450.246L452.994 110.799L452.877 111.173C452.6 111.969 452.205 112.273 451.478 112.273C451.368 112.273 451.139 112.266 451.063 112.253V113.422C451.153 113.429 451.416 113.443 451.631 113.443Z" fill="#E6E3E0"/>
<rect opacity="0.3" x="27.1681" y="34.3498" width="198.45" height="110.25" rx="14.5688" stroke="#C1BFB8" stroke-width="2.3625"/>
<path d="M181.912 99.3186C181.912 96.7091 184.027 94.5936 186.637 94.5936H260.812C263.422 94.5936 265.537 96.7091 265.537 99.3186V114.319C265.537 116.928 263.422 119.044 260.812 119.044H186.637C184.027 119.044 181.912 116.928 181.912 114.319V99.3186Z" fill="#CECBC4"/>
<path d="M199.836 104.774H195.136V105.896H198.479V112.111C198.479 113.101 198.071 113.433 196.805 113.433C196.424 113.433 195.289 113.419 194.991 113.391V114.603C195.399 114.637 196.417 114.651 196.853 114.651C198.992 114.651 199.836 113.966 199.836 112.208V104.774ZM199.061 103.009C199.677 103.009 200.127 102.58 200.127 101.985C200.127 101.383 199.677 100.954 199.061 100.954C198.438 100.954 197.988 101.383 197.988 101.985C197.988 102.58 198.438 103.009 199.061 103.009ZM209.755 104.774H208.37V109.197C208.37 110.415 207.595 111.225 206.439 111.225C205.325 111.225 204.806 110.616 204.806 109.322V104.774H203.415V109.668C203.415 111.481 204.301 112.464 205.941 112.464C207.069 112.464 207.921 111.938 208.315 111.004H208.412V112.319H209.755V104.774ZM218.753 106.678C218.753 105.342 218.22 104.629 217.202 104.629C216.455 104.629 215.874 105.093 215.694 105.84H215.541C215.382 105.072 214.891 104.629 214.185 104.629C213.465 104.629 212.932 105.086 212.752 105.868H212.6V104.774H211.375V112.319H212.593V107.204C212.593 106.373 212.973 105.861 213.583 105.861C214.157 105.861 214.468 106.29 214.468 107.1V112.319H215.68V107.204C215.68 106.373 216.053 105.861 216.649 105.861C217.216 105.861 217.535 106.297 217.535 107.107V112.319H218.753V106.678ZM224.131 104.657C223.037 104.657 222.262 105.113 221.909 105.972H221.778V104.774H220.387V114.852H221.812V111.121H221.944C222.248 111.966 223.037 112.443 224.131 112.443C225.868 112.443 226.976 111.204 226.976 109.239V107.861C226.976 105.896 225.868 104.657 224.131 104.657ZM223.667 105.889C224.83 105.889 225.571 106.705 225.571 108V109.128C225.571 110.422 224.83 111.246 223.667 111.246C222.511 111.246 221.778 110.429 221.778 109.128V108C221.778 106.705 222.511 105.889 223.667 105.889ZM232.603 112.443C234.34 112.443 235.448 111.204 235.448 109.232V107.861C235.448 105.889 234.34 104.65 232.603 104.65C231.516 104.65 230.727 105.127 230.423 105.972H230.284V101.833H228.859V112.319H230.257V111.128H230.388C230.741 111.979 231.516 112.443 232.603 112.443ZM232.146 111.211C230.99 111.211 230.25 110.394 230.25 109.1V107.972C230.25 106.671 230.99 105.854 232.146 105.854C233.309 105.854 234.043 106.678 234.043 107.972V109.1C234.043 110.394 233.309 111.211 232.146 111.211ZM240.501 112.464C242.536 112.464 243.83 111.163 243.83 109.121V107.979C243.83 105.93 242.536 104.636 240.501 104.636C238.466 104.636 237.171 105.93 237.171 107.979V109.121C237.171 111.163 238.466 112.464 240.501 112.464ZM240.501 105.812C241.705 105.812 242.459 106.678 242.459 108.076V109.024C242.459 110.422 241.705 111.287 240.501 111.287C239.296 111.287 238.542 110.422 238.542 109.024V108.076C238.542 106.678 239.296 105.812 240.501 105.812ZM249.007 109.515L250.786 112.319H252.371L249.824 108.498L252.35 104.774H250.8L249.063 107.55H248.966L247.215 104.774H245.595L248.142 108.553L245.609 112.319H247.125L248.91 109.515H249.007Z" fill="#E6E3E0"/>
<path d="M100.799 263.906C100.799 261.297 102.915 259.181 105.524 259.181H213.699C216.309 259.181 218.424 261.297 218.424 263.906V278.906C218.424 281.516 216.309 283.631 213.699 283.631H105.524C102.915 283.631 100.799 281.516 100.799 278.906V263.906Z" fill="#CECBC4"/>
<path d="M113.498 269.362L116.225 276.906H117.768L120.488 269.362H119.014L117.055 275.487H116.958L114.986 269.362H113.498ZM126.06 269.244C124.967 269.244 124.192 269.701 123.839 270.559H123.707V269.362H122.316V279.439H123.742V275.709H123.873C124.178 276.553 124.967 277.031 126.06 277.031C127.798 277.031 128.905 275.792 128.905 273.826V272.449C128.905 270.483 127.798 269.244 126.06 269.244ZM125.597 270.476C126.759 270.476 127.5 271.293 127.5 272.587V273.715C127.5 275.01 126.759 275.833 125.597 275.833C124.441 275.833 123.707 275.017 123.707 273.715V272.587C123.707 271.293 124.441 270.476 125.597 270.476ZM130.781 276.906H132.165V272.483C132.165 271.265 132.941 270.456 134.096 270.456C135.211 270.456 135.73 271.065 135.73 272.359V276.906H137.121V272.013C137.121 270.199 136.235 269.217 134.595 269.217C133.467 269.217 132.615 269.743 132.221 270.677H132.124V269.362H130.781V276.906ZM148.812 273.605V272.56C148.812 271.272 149.559 270.442 150.729 270.442C151.892 270.442 152.646 271.265 152.646 272.56V273.605C152.646 274.892 151.892 275.723 150.729 275.723C149.559 275.723 148.812 274.892 148.812 273.605ZM150.694 279.737C152.785 279.737 154.037 278.671 154.037 276.899V269.362H152.667V270.559H152.536C152.231 269.736 151.4 269.237 150.307 269.237C148.528 269.237 147.4 270.476 147.4 272.449V273.736C147.4 275.702 148.521 276.948 150.258 276.948C151.366 276.948 152.217 276.443 152.515 275.633H152.646V276.892C152.646 278.028 151.961 278.65 150.715 278.65C149.76 278.65 149.047 278.27 148.902 277.681H147.531C147.677 278.955 148.881 279.737 150.694 279.737ZM158.55 277.031C159.616 277.031 160.426 276.588 160.786 275.813H160.918V276.913H162.24V271.757C162.24 270.172 161.201 269.258 159.381 269.258C157.761 269.258 156.578 270.103 156.439 271.348H157.796C157.976 270.753 158.55 270.407 159.353 270.407C160.322 270.407 160.862 270.892 160.862 271.757V272.421L158.883 272.525C157.125 272.629 156.156 273.418 156.156 274.761C156.156 276.124 157.111 277.031 158.55 277.031ZM158.98 275.875C158.094 275.875 157.54 275.425 157.54 274.698C157.54 273.965 158.066 273.549 159.07 273.494L160.862 273.404V274.2C160.862 275.162 160.059 275.875 158.98 275.875ZM166.497 267.299V269.403H164.503V270.545H166.497V274.622C166.497 276.242 167.341 276.934 169.272 276.934C169.563 276.934 170.656 276.906 170.809 276.879V275.743C170.642 275.764 169.722 275.778 169.369 275.778C168.407 275.778 167.888 275.37 167.888 274.622V270.545H170.85V269.403H167.867V267.299H166.497ZM176.429 270.352C177.571 270.352 178.249 271.161 178.249 272.504H174.553C174.553 271.155 175.259 270.352 176.429 270.352ZM178.263 274.913C178.076 275.529 177.405 275.91 176.512 275.91C175.322 275.91 174.553 275.093 174.553 273.819V273.48H179.613V272.663C179.613 270.518 178.415 269.217 176.443 269.217C174.484 269.217 173.19 270.525 173.19 272.511V273.66C173.19 275.806 174.401 277.052 176.519 277.052C178.146 277.052 179.391 276.18 179.592 274.913H178.263ZM188.936 269.362H187.593L186.701 275.211H186.541L185.441 269.376H184.209L183.108 275.211H182.949L182.056 269.362H180.714L182.306 276.906H183.586L184.79 271.251H184.866L186.064 276.906H187.344L188.936 269.362ZM192.466 277.031C193.532 277.031 194.342 276.588 194.702 275.813H194.834V276.913H196.156V271.757C196.156 270.172 195.117 269.258 193.297 269.258C191.677 269.258 190.494 270.103 190.355 271.348H191.712C191.892 270.753 192.466 270.407 193.269 270.407C194.238 270.407 194.778 270.892 194.778 271.757V272.421L192.799 272.525C191.041 272.629 190.072 273.418 190.072 274.761C190.072 276.124 191.027 277.031 192.466 277.031ZM192.896 275.875C192.01 275.875 191.456 275.425 191.456 274.698C191.456 273.965 191.982 273.549 192.986 273.494L194.778 273.404V274.2C194.778 275.162 193.975 275.875 192.896 275.875ZM199.63 279.606C201.167 279.606 201.873 279.01 202.53 277.135L205.299 269.362H203.825L201.852 275.536H201.755L199.769 269.362H198.246L200.994 276.962L200.876 277.335C200.599 278.131 200.205 278.436 199.478 278.436C199.367 278.436 199.139 278.429 199.063 278.415V279.585C199.153 279.592 199.416 279.606 199.63 279.606Z" fill="#E6E3E0"/>
<rect opacity="0.3" x="30.3181" y="315.488" width="162.225" height="93.7126" rx="14.5688" stroke="#C1BFB8" stroke-width="2.3625"/>
<rect opacity="0.3" x="409.893" y="268.238" width="198.45" height="140.963" rx="14.5688" stroke="#C1BFB8" stroke-width="2.3625"/>
<path d="M133.087 337.144C133.087 334.534 135.202 332.419 137.812 332.419H203.987C206.596 332.419 208.712 334.534 208.712 337.144V352.144C208.712 354.753 206.596 356.869 203.987 356.869H137.812C135.202 356.869 133.087 354.753 133.087 352.144V337.144Z" fill="#CECBC4"/>
<path d="M146.443 344.683C146.443 345.783 147.128 346.476 148.505 346.787L149.634 347.043C150.547 347.251 150.886 347.535 150.886 348.088C150.886 348.746 150.277 349.168 149.329 349.168C148.415 349.168 147.793 348.801 147.64 348.157H146.242C146.367 349.486 147.516 350.282 149.294 350.282C151.136 350.282 152.319 349.369 152.319 347.936C152.319 346.829 151.648 346.192 150.16 345.86L149.066 345.617C148.187 345.424 147.82 345.126 147.82 344.586C147.82 343.963 148.395 343.548 149.281 343.548C150.111 343.548 150.7 343.929 150.824 344.545H152.153C152.028 343.236 150.949 342.447 149.301 342.447C147.571 342.447 146.443 343.333 146.443 344.683ZM160.93 342.6H159.545V347.022C159.545 348.241 158.77 349.05 157.614 349.05C156.5 349.05 155.981 348.441 155.981 347.147V342.6H154.59V347.493C154.59 349.306 155.476 350.289 157.116 350.289C158.244 350.289 159.095 349.763 159.49 348.829H159.587V350.144H160.93V342.6ZM166.82 350.269C168.557 350.269 169.665 349.03 169.665 347.057V345.687C169.665 343.714 168.557 342.475 166.82 342.475C165.733 342.475 164.944 342.953 164.64 343.797H164.501V339.658H163.076V350.144H164.474V348.953H164.605C164.958 349.805 165.733 350.269 166.82 350.269ZM166.363 349.036C165.207 349.036 164.467 348.22 164.467 346.925V345.797C164.467 344.496 165.207 343.679 166.363 343.679C167.526 343.679 168.26 344.503 168.26 345.797V346.925C168.26 348.22 167.526 349.036 166.363 349.036ZM171.548 350.144H172.932V345.721C172.932 344.503 173.707 343.693 174.863 343.693C175.977 343.693 176.496 344.302 176.496 345.597V350.144H177.888V345.25C177.888 343.437 177.002 342.454 175.361 342.454C174.233 342.454 173.382 342.98 172.987 343.915H172.89V342.6H171.548V350.144ZM183.28 343.589C184.422 343.589 185.1 344.399 185.1 345.742H181.404C181.404 344.392 182.11 343.589 183.28 343.589ZM185.114 348.151C184.927 348.767 184.256 349.147 183.363 349.147C182.172 349.147 181.404 348.331 181.404 347.057V346.718H186.463V345.901C186.463 343.755 185.266 342.454 183.293 342.454C181.335 342.454 180.04 343.762 180.04 345.749V346.898C180.04 349.043 181.252 350.289 183.37 350.289C184.996 350.289 186.242 349.417 186.443 348.151H185.114ZM190.305 340.537V342.641H188.312V343.783H190.305V347.86C190.305 349.479 191.15 350.172 193.081 350.172C193.371 350.172 194.465 350.144 194.617 350.116V348.981C194.451 349.002 193.531 349.016 193.178 349.016C192.215 349.016 191.696 348.607 191.696 347.86V343.783H194.659V342.641H191.676V340.537H190.305Z" fill="#E6E3E0"/>
<path d="M372.487 300.131C372.487 297.522 374.603 295.406 377.212 295.406H443.387C445.997 295.406 448.112 297.522 448.112 300.131V315.131C448.112 317.741 445.997 319.856 443.387 319.856H377.212C374.603 319.856 372.487 317.741 372.487 315.131V300.131Z" fill="#CECBC4"/>
<path d="M385.843 307.67C385.843 308.771 386.528 309.463 387.906 309.774L389.034 310.031C389.948 310.238 390.287 310.522 390.287 311.076C390.287 311.733 389.678 312.155 388.729 312.155C387.816 312.155 387.193 311.789 387.041 311.145H385.642C385.767 312.474 386.916 313.27 388.695 313.27C390.536 313.27 391.719 312.356 391.719 310.923C391.719 309.816 391.048 309.179 389.56 308.847L388.466 308.605C387.587 308.411 387.221 308.113 387.221 307.573C387.221 306.951 387.795 306.535 388.681 306.535C389.511 306.535 390.1 306.916 390.224 307.532H391.553C391.429 306.224 390.349 305.435 388.702 305.435C386.971 305.435 385.843 306.321 385.843 307.67ZM400.33 305.587H398.946V310.01C398.946 311.228 398.17 312.038 397.015 312.038C395.9 312.038 395.381 311.429 395.381 310.134V305.587H393.99V310.48C393.99 312.294 394.876 313.277 396.516 313.277C397.644 313.277 398.496 312.751 398.89 311.816H398.987V313.131H400.33V305.587ZM406.22 313.256C407.958 313.256 409.065 312.017 409.065 310.044V308.674C409.065 306.701 407.958 305.462 406.22 305.462C405.134 305.462 404.345 305.94 404.04 306.784H403.902V302.645H402.476V313.131H403.874V311.941H404.005C404.358 312.792 405.134 313.256 406.22 313.256ZM405.763 312.024C404.608 312.024 403.867 311.207 403.867 309.913V308.785C403.867 307.483 404.608 306.667 405.763 306.667C406.926 306.667 407.66 307.49 407.66 308.785V309.913C407.66 311.207 406.926 312.024 405.763 312.024ZM410.948 313.131H412.332V308.709C412.332 307.49 413.107 306.681 414.263 306.681C415.378 306.681 415.897 307.29 415.897 308.584V313.131H417.288V308.238C417.288 306.425 416.402 305.442 414.762 305.442C413.633 305.442 412.782 305.968 412.388 306.902H412.291V305.587H410.948V313.131ZM422.68 306.577C423.822 306.577 424.5 307.387 424.5 308.729H420.804C420.804 307.38 421.51 306.577 422.68 306.577ZM424.514 311.138C424.327 311.754 423.656 312.135 422.763 312.135C421.572 312.135 420.804 311.318 420.804 310.044V309.705H425.864V308.889C425.864 306.743 424.666 305.442 422.694 305.442C420.735 305.442 419.441 306.75 419.441 308.736V309.885C419.441 312.031 420.652 313.277 422.77 313.277C424.396 313.277 425.642 312.405 425.843 311.138H424.514ZM429.705 303.524V305.629H427.712V306.771H429.705V310.847C429.705 312.467 430.55 313.159 432.481 313.159C432.772 313.159 433.865 313.131 434.017 313.104V311.969C433.851 311.989 432.931 312.003 432.578 312.003C431.616 312.003 431.097 311.595 431.097 310.847V306.771H434.059V305.629H431.076V303.524H429.705Z" fill="#E6E3E0"/>
<path d="M315.787 215.869L322.875 194.212V83.5498C322.875 70.295 333.595 59.5498 346.85 59.5498C372.895 59.5498 414.34 59.5498 441 59.5498M315.787 215.869L309.093 194.212V85.9123C309.093 72.6575 298.352 61.9123 285.097 61.9123C257.746 61.9123 213.741 61.9123 189.787 61.9123M315.787 215.869L334.293 198.544V168.6C334.293 155.345 345.016 144.6 358.271 144.6C394.156 144.6 459.932 144.6 481.556 144.6M315.787 215.869L295.706 194.212V140.25C295.706 126.995 284.976 116.25 271.721 116.25C235.548 116.25 169.214 116.25 150.018 116.25M315.787 215.869C315.787 215.869 308.03 218.382 334.293 239.888V295.819C334.293 309.074 344.993 319.819 358.247 319.819C397.273 319.819 472.197 319.819 491.794 319.819M315.787 215.869V239.888V360.394C315.787 373.649 326.502 384.394 339.757 384.394C369.054 384.394 417.223 384.394 437.456 384.394M315.787 215.869C315.787 215.869 318.514 205.518 295.706 239.888V358.031C295.706 371.286 284.997 382.031 271.743 382.031C237.02 382.031 174.611 382.031 153.956 382.031" stroke="#C8876C" stroke-width="2.3625"/>
<circle cx="315" cy="216.656" r="34.65" fill="#CA6940"/>
<path d="M300.861 226.304C303.352 226.304 304.543 225.381 305.42 222.761L308.926 212.452H306.25L303.998 220.306H303.842L301.59 212.452H298.803L302.383 222.705L302.282 223.093C302.042 223.896 301.479 224.246 300.455 224.246C300.316 224.246 299.956 224.237 299.892 224.219V226.286C299.966 226.295 300.427 226.304 300.861 226.304ZM315.175 222.853C318.045 222.853 319.853 221.109 319.853 218.331V216.762C319.853 213.984 318.045 212.24 315.175 212.24C312.304 212.24 310.496 213.984 310.496 216.762V218.331C310.496 221.109 312.304 222.853 315.175 222.853ZM315.175 214.307C316.531 214.307 317.371 215.285 317.371 216.864V218.229C317.371 219.798 316.531 220.786 315.175 220.786C313.818 220.786 312.978 219.798 312.978 218.229V216.864C312.978 215.285 313.818 214.307 315.175 214.307ZM331.011 212.452H328.492V218.331C328.492 219.743 327.652 220.638 326.36 220.638C325.077 220.638 324.477 219.927 324.477 218.432V212.452H321.949V219.032C321.949 221.515 323.13 222.844 325.345 222.844C326.812 222.844 327.91 222.151 328.409 220.924H328.566V222.631H331.011V212.452Z" fill="white"/>
<path d="M481.95 318.656C481.95 310.6 488.481 304.069 496.537 304.069H577.437C585.494 304.069 592.025 310.6 592.025 318.656C592.025 326.713 585.494 333.244 577.437 333.244H496.537C488.481 333.244 481.95 326.713 481.95 318.656Z" fill="#343433"/>
<path d="M501.701 314.549V316.654H499.708V317.796H501.701V321.872C501.701 323.492 502.545 324.184 504.476 324.184C504.767 324.184 505.861 324.156 506.013 324.129V322.994C505.847 323.014 504.926 323.028 504.573 323.028C503.611 323.028 503.092 322.62 503.092 321.872V317.796H506.054V316.654H503.071V314.549H501.701ZM511.55 324.302C513.585 324.302 514.88 323 514.88 320.959V319.817C514.88 317.768 513.585 316.474 511.55 316.474C509.515 316.474 508.221 317.768 508.221 319.817V320.959C508.221 323 509.515 324.302 511.55 324.302ZM511.55 317.65C512.755 317.65 513.509 318.515 513.509 319.914V320.862C513.509 322.26 512.755 323.125 511.55 323.125C510.346 323.125 509.592 322.26 509.592 320.862V319.914C509.592 318.515 510.346 317.65 511.55 317.65ZM523.718 318.515C523.718 317.18 523.185 316.467 522.168 316.467C521.421 316.467 520.839 316.93 520.659 317.678H520.507C520.348 316.91 519.856 316.467 519.15 316.467C518.43 316.467 517.898 316.924 517.718 317.706H517.565V316.612H516.34V324.156H517.558V319.041C517.558 318.211 517.939 317.699 518.548 317.699C519.123 317.699 519.434 318.128 519.434 318.938V324.156H520.645V319.041C520.645 318.211 521.019 317.699 521.614 317.699C522.182 317.699 522.5 318.135 522.5 318.945V324.156H523.718V318.515ZM528.571 318.585L529.699 314.169H528.266L527.318 318.585H528.571ZM534.15 318.695C534.15 319.796 534.835 320.488 536.212 320.799L537.34 321.056C538.254 321.263 538.593 321.547 538.593 322.101C538.593 322.758 537.984 323.18 537.036 323.18C536.122 323.18 535.499 322.814 535.347 322.17H533.949C534.073 323.499 535.222 324.295 537.001 324.295C538.842 324.295 540.026 323.381 540.026 321.948C540.026 320.841 539.354 320.204 537.866 319.872L536.773 319.63C535.894 319.436 535.527 319.138 535.527 318.598C535.527 317.976 536.101 317.56 536.987 317.56C537.818 317.56 538.406 317.941 538.531 318.557H539.86C539.735 317.249 538.655 316.46 537.008 316.46C535.278 316.46 534.15 317.346 534.15 318.695ZM557.634 318.515C557.634 317.18 557.101 316.467 556.084 316.467C555.336 316.467 554.755 316.93 554.575 317.678H554.423C554.264 316.91 553.772 316.467 553.066 316.467C552.346 316.467 551.813 316.924 551.634 317.706H551.481V316.612H550.256V324.156H551.474V319.041C551.474 318.211 551.855 317.699 552.464 317.699C553.039 317.699 553.35 318.128 553.35 318.938V324.156H554.561V319.041C554.561 318.211 554.935 317.699 555.53 317.699C556.098 317.699 556.416 318.135 556.416 318.945V324.156H557.634V318.515ZM561.587 324.281C562.653 324.281 563.462 323.838 563.822 323.063H563.954V324.163H565.276V319.007C565.276 317.422 564.238 316.508 562.417 316.508C560.798 316.508 559.614 317.353 559.476 318.598H560.832C561.012 318.003 561.587 317.657 562.39 317.657C563.359 317.657 563.899 318.142 563.899 319.007V319.671L561.919 319.775C560.161 319.879 559.192 320.668 559.192 322.011C559.192 323.374 560.147 324.281 561.587 324.281ZM562.016 323.125C561.13 323.125 560.576 322.675 560.576 321.948C560.576 321.215 561.102 320.799 562.106 320.744L563.899 320.654V321.45C563.899 322.412 563.096 323.125 562.016 323.125ZM574.129 319.041C573.942 317.408 572.8 316.46 571.042 316.46C568.944 316.46 567.733 317.713 567.733 319.914V320.841C567.733 323.042 568.944 324.302 571.042 324.302C572.8 324.302 573.942 323.353 574.129 321.748H572.758C572.62 322.599 571.955 323.104 571.028 323.104C569.803 323.104 569.124 322.246 569.124 320.696V320.059C569.124 318.509 569.803 317.65 571.028 317.65C571.948 317.65 572.627 318.169 572.758 319.041H574.129Z" fill="white"/>
<path d="M426.825 384.019C426.825 375.962 433.356 369.431 441.412 369.431H581.312C589.369 369.431 595.9 375.962 595.9 384.019C595.9 392.075 589.369 398.606 581.312 398.606H441.412C433.356 398.606 426.825 392.075 426.825 384.019Z" fill="#343433"/>
<path d="M451.535 389.519L448.448 385.006L451.334 381.975H449.687L446.6 385.262H446.496V379.033H445.112V389.519H446.496V386.84L447.444 385.92L449.902 389.519H451.535ZM455.411 389.644C456.477 389.644 457.287 389.201 457.647 388.425H457.778V389.526H459.1V384.369C459.1 382.784 458.062 381.871 456.242 381.871C454.622 381.871 453.439 382.715 453.3 383.961H454.657C454.837 383.366 455.411 383.02 456.214 383.02C457.183 383.02 457.723 383.504 457.723 384.369V385.034L455.744 385.138C453.985 385.241 453.016 386.031 453.016 387.373C453.016 388.737 453.972 389.644 455.411 389.644ZM455.84 388.488C454.954 388.488 454.401 388.038 454.401 387.311C454.401 386.577 454.927 386.162 455.93 386.107L457.723 386.017V386.813C457.723 387.775 456.92 388.488 455.84 388.488ZM463.357 379.912V382.016H461.364V383.158H463.357V387.235C463.357 388.854 464.202 389.547 466.133 389.547C466.424 389.547 467.517 389.519 467.669 389.491V388.356C467.503 388.377 466.583 388.391 466.23 388.391C465.268 388.391 464.749 387.982 464.749 387.235V383.158H467.711V382.016H464.728V379.912H463.357ZM471.054 392.218C472.591 392.218 473.297 391.623 473.954 389.747L476.723 381.975H475.249L473.276 388.148H473.179L471.193 381.975H469.67L472.418 389.574L472.3 389.948C472.023 390.744 471.629 391.049 470.902 391.049C470.791 391.049 470.563 391.042 470.487 391.028V392.198C470.577 392.204 470.84 392.218 471.054 392.218ZM480.848 389.644C481.914 389.644 482.724 389.201 483.084 388.425H483.215V389.526H484.537V384.369C484.537 382.784 483.499 381.871 481.679 381.871C480.059 381.871 478.876 382.715 478.737 383.961H480.094C480.274 383.366 480.848 383.02 481.651 383.02C482.62 383.02 483.16 383.504 483.16 384.369V385.034L481.18 385.138C479.422 385.241 478.453 386.031 478.453 387.373C478.453 388.737 479.409 389.644 480.848 389.644ZM481.277 388.488C480.391 388.488 479.838 388.038 479.838 387.311C479.838 386.577 480.364 386.162 481.367 386.107L483.16 386.017V386.813C483.16 387.775 482.357 388.488 481.277 388.488ZM490.227 383.947L491.355 379.531H489.922L488.974 383.947H490.227ZM495.806 384.058C495.806 385.158 496.491 385.851 497.869 386.162L498.997 386.418C499.91 386.626 500.249 386.91 500.249 387.463C500.249 388.121 499.64 388.543 498.692 388.543C497.779 388.543 497.156 388.176 497.003 387.532H495.605C495.73 388.861 496.879 389.657 498.658 389.657C500.499 389.657 501.682 388.744 501.682 387.311C501.682 386.204 501.011 385.567 499.523 385.235L498.429 384.992C497.55 384.799 497.183 384.501 497.183 383.961C497.183 383.338 497.758 382.923 498.644 382.923C499.474 382.923 500.063 383.304 500.187 383.92H501.516C501.391 382.611 500.312 381.822 498.664 381.822C496.934 381.822 495.806 382.708 495.806 384.058ZM514.231 379.912V382.016H512.238V383.158H514.231V387.235C514.231 388.854 515.076 389.547 517.007 389.547C517.297 389.547 518.391 389.519 518.543 389.491V388.356C518.377 388.377 517.457 388.391 517.104 388.391C516.142 388.391 515.622 387.982 515.622 387.235V383.158H518.585V382.016H515.602V379.912H514.231ZM520.897 389.519H522.288V385.11C522.288 383.892 523.063 383.082 524.233 383.082C525.347 383.082 525.88 383.698 525.88 384.978V389.519H527.265V384.639C527.265 382.833 526.372 381.843 524.731 381.843C523.589 381.843 522.731 382.369 522.343 383.297H522.24V379.033H520.897V389.519ZM532.684 380.21C533.307 380.21 533.757 379.781 533.757 379.185C533.757 378.583 533.307 378.154 532.684 378.154C532.068 378.154 531.611 378.583 531.611 379.185C531.611 379.781 532.068 380.21 532.684 380.21ZM535.868 389.519V388.398H533.432V381.975H529.59V383.096H532.075V388.398H529.535V389.519H535.868ZM537.869 389.519H539.253V385.096C539.253 383.878 540.028 383.068 541.184 383.068C542.298 383.068 542.817 383.677 542.817 384.972V389.519H544.209V384.625C544.209 382.812 543.323 381.829 541.682 381.829C540.554 381.829 539.703 382.355 539.308 383.29H539.211V381.975H537.869V389.519ZM553.283 389.519L550.196 385.006L553.082 381.975H551.435L548.348 385.262H548.244V379.033H546.86V389.519H548.244V386.84L549.192 385.92L551.649 389.519H553.283ZM558.585 381.857C557.491 381.857 556.716 382.314 556.363 383.172H556.232V381.975H554.84V392.052H556.266V388.322H556.398C556.702 389.166 557.491 389.644 558.585 389.644C560.322 389.644 561.43 388.405 561.43 386.439V385.062C561.43 383.096 560.322 381.857 558.585 381.857ZM558.121 383.089C559.284 383.089 560.025 383.906 560.025 385.2V386.328C560.025 387.622 559.284 388.446 558.121 388.446C556.965 388.446 556.232 387.629 556.232 386.328V385.2C556.232 383.906 556.965 383.089 558.121 383.089ZM565.638 389.644C566.704 389.644 567.514 389.201 567.874 388.425H568.005V389.526H569.327V384.369C569.327 382.784 568.289 381.871 566.469 381.871C564.849 381.871 563.666 382.715 563.527 383.961H564.884C565.064 383.366 565.638 383.02 566.441 383.02C567.41 383.02 567.95 383.504 567.95 384.369V385.034L565.97 385.138C564.212 385.241 563.243 386.031 563.243 387.373C563.243 388.737 564.198 389.644 565.638 389.644ZM566.067 388.488C565.181 388.488 564.628 388.038 564.628 387.311C564.628 386.577 565.154 386.162 566.157 386.107L567.95 386.017V386.813C567.95 387.775 567.147 388.488 566.067 388.488ZM572.934 385.172C572.934 383.878 573.667 383.054 574.83 383.054C575.986 383.054 576.726 383.871 576.726 385.172V386.3C576.726 387.595 575.986 388.411 574.83 388.411C573.667 388.411 572.934 387.595 572.934 386.3V385.172ZM576.72 388.328V389.519H578.118V379.033H576.692V383.172H576.553C576.249 382.328 575.46 381.85 574.373 381.85C572.636 381.85 571.528 383.089 571.528 385.062V386.432C571.528 388.405 572.636 389.644 574.373 389.644C575.46 389.644 576.235 389.18 576.588 388.328H576.72Z" fill="white"/>
<path d="M45.6743 381.656C45.6743 373.6 52.2054 367.069 60.2618 367.069H150.162C158.218 367.069 164.749 373.6 164.749 381.656C164.749 389.713 158.218 396.244 150.162 396.244H60.2618C52.2054 396.244 45.6743 389.713 45.6743 381.656Z" fill="#343433"/>
<path d="M64.9592 383.855V382.81C64.9592 381.522 65.7067 380.692 66.8764 380.692C68.0392 380.692 68.7936 381.515 68.7936 382.81V383.855C68.7936 385.142 68.0392 385.973 66.8764 385.973C65.7067 385.973 64.9592 385.142 64.9592 383.855ZM66.8418 389.987C68.9321 389.987 70.1848 388.921 70.1848 387.149V379.612H68.8144V380.809H68.6829C68.3783 379.986 67.5478 379.487 66.4542 379.487C64.6754 379.487 63.5472 380.726 63.5472 382.699V383.986C63.5472 385.952 64.6685 387.198 66.4057 387.198C67.5132 387.198 68.3645 386.693 68.6621 385.883H68.7936V387.143C68.7936 388.278 68.1084 388.901 66.8626 388.901C65.9074 388.901 65.1945 388.52 65.0492 387.932H63.6787C63.8241 389.205 65.0284 389.987 66.8418 389.987ZM75.6599 377.847C76.2829 377.847 76.7327 377.418 76.7327 376.823C76.7327 376.221 76.2829 375.791 75.6599 375.791C75.0439 375.791 74.5871 376.221 74.5871 376.823C74.5871 377.418 75.0439 377.847 75.6599 377.847ZM78.8438 387.156V386.035H76.4074V379.612H72.5661V380.733H75.0508V386.035H72.5107V387.156H78.8438ZM82.6439 377.549V379.654H80.6505V380.796H82.6439V384.872C82.6439 386.492 83.4883 387.184 85.4194 387.184C85.7101 387.184 86.8037 387.156 86.9559 387.129V385.994C86.7898 386.014 85.8693 386.028 85.5163 386.028C84.5542 386.028 84.0351 385.62 84.0351 384.872V380.796H86.9975V379.654H84.0143V377.549H82.6439ZM98.1345 381.695C98.1345 382.796 98.8197 383.488 100.197 383.799L101.325 384.056C102.239 384.263 102.578 384.547 102.578 385.101C102.578 385.758 101.969 386.18 101.021 386.18C100.107 386.18 99.4842 385.814 99.3319 385.17H97.9338C98.0584 386.499 99.2073 387.295 100.986 387.295C102.827 387.295 104.011 386.381 104.011 384.948C104.011 383.841 103.339 383.204 101.851 382.872L100.758 382.63C99.8787 382.436 99.5119 382.138 99.5119 381.598C99.5119 380.976 100.086 380.56 100.972 380.56C101.803 380.56 102.391 380.941 102.516 381.557H103.845C103.72 380.249 102.64 379.46 100.993 379.46C99.2627 379.46 98.1345 380.346 98.1345 381.695ZM109.534 380.602C110.676 380.602 111.355 381.412 111.355 382.754H107.659C107.659 381.405 108.365 380.602 109.534 380.602ZM111.369 385.163C111.182 385.779 110.51 386.16 109.617 386.16C108.427 386.16 107.659 385.343 107.659 384.069V383.73H112.718V382.914C112.718 380.768 111.521 379.467 109.548 379.467C107.589 379.467 106.295 380.775 106.295 382.761V383.91C106.295 386.056 107.506 387.302 109.624 387.302C111.251 387.302 112.497 386.43 112.697 385.163H111.369ZM117.674 381.536V379.612H114.691V380.678H116.331V386.09H114.836V387.156H116.331H117.681H119.972V386.09H117.681V383.793C117.681 381.945 118.629 380.886 120.332 380.886C120.747 380.886 121.239 380.976 121.578 381.1V379.577C121.329 379.474 120.92 379.418 120.491 379.418C119.045 379.418 118.166 380.117 117.868 381.536H117.674ZM122.914 379.612L125.641 387.156H127.184L129.905 379.612H128.43L126.472 385.737H126.375L124.402 379.612H122.914ZM134.971 380.602C136.113 380.602 136.792 381.412 136.792 382.754H133.096C133.096 381.405 133.802 380.602 134.971 380.602ZM136.805 385.163C136.619 385.779 135.947 386.16 135.054 386.16C133.864 386.16 133.096 385.343 133.096 384.069V383.73H138.155V382.914C138.155 380.768 136.958 379.467 134.985 379.467C133.026 379.467 131.732 380.775 131.732 382.761V383.91C131.732 386.056 132.943 387.302 135.061 387.302C136.688 387.302 137.934 386.43 138.134 385.163H136.805ZM143.111 381.536V379.612H140.128V380.678H141.768V386.09H140.273V387.156H141.768H143.118H145.409V386.09H143.118V383.793C143.118 381.945 144.066 380.886 145.769 380.886C146.184 380.886 146.676 380.976 147.015 381.1V379.577C146.766 379.474 146.357 379.418 145.928 379.418C144.482 379.418 143.603 380.117 143.305 381.536H143.111Z" fill="white"/>
<path d="M474.075 143.831C474.075 135.775 480.606 129.244 488.662 129.244H578.562C586.619 129.244 593.15 135.775 593.15 143.831C593.15 151.888 586.619 158.419 578.562 158.419H488.662C480.606 158.419 474.075 151.888 474.075 143.831Z" fill="#343433"/>
<path d="M493.436 144.985C493.436 143.69 494.169 142.867 495.332 142.867C496.488 142.867 497.229 143.683 497.229 144.985V146.113C497.229 147.407 496.488 148.224 495.332 148.224C494.169 148.224 493.436 147.407 493.436 146.113V144.985ZM497.222 148.141V149.331H498.62V138.845H497.194V142.984H497.056C496.751 142.14 495.962 141.662 494.875 141.662C493.138 141.662 492.031 142.901 492.031 144.874V146.244C492.031 148.217 493.138 149.456 494.875 149.456C495.962 149.456 496.737 148.992 497.09 148.141H497.222ZM503.098 149.456C504.164 149.456 504.974 149.013 505.334 148.238H505.465V149.338H506.787V144.182C506.787 142.597 505.749 141.683 503.929 141.683C502.309 141.683 501.126 142.527 500.987 143.773H502.344C502.524 143.178 503.098 142.832 503.901 142.832C504.87 142.832 505.41 143.316 505.41 144.182V144.846L503.431 144.95C501.673 145.054 500.704 145.843 500.704 147.186C500.704 148.549 501.659 149.456 503.098 149.456ZM503.527 148.3C502.642 148.3 502.088 147.85 502.088 147.123C502.088 146.39 502.614 145.974 503.617 145.919L505.41 145.829V146.625C505.41 147.587 504.607 148.3 503.527 148.3ZM508.92 141.787L511.647 149.331H513.19L515.91 141.787H514.436L512.477 147.912H512.38L510.408 141.787H508.92ZM520.977 142.777C522.119 142.777 522.797 143.586 522.797 144.929H519.101C519.101 143.579 519.807 142.777 520.977 142.777ZM522.811 147.338C522.624 147.954 521.953 148.334 521.06 148.334C519.869 148.334 519.101 147.518 519.101 146.244V145.905H524.161V145.088C524.161 142.943 522.963 141.642 520.991 141.642C519.032 141.642 517.738 142.95 517.738 144.936V146.085C517.738 148.231 518.949 149.477 521.067 149.477C522.693 149.477 523.939 148.604 524.14 147.338H522.811ZM529.435 143.759L530.563 139.344H529.131L528.182 143.759H529.435ZM535.014 143.87C535.014 144.971 535.699 145.663 537.077 145.974L538.205 146.23C539.118 146.438 539.458 146.722 539.458 147.276C539.458 147.933 538.848 148.355 537.9 148.355C536.987 148.355 536.364 147.988 536.211 147.345H534.813C534.938 148.674 536.087 149.47 537.866 149.47C539.707 149.47 540.89 148.556 540.89 147.123C540.89 146.016 540.219 145.379 538.731 145.047L537.637 144.805C536.758 144.611 536.391 144.313 536.391 143.773C536.391 143.15 536.966 142.735 537.852 142.735C538.682 142.735 539.271 143.116 539.395 143.732H540.724C540.6 142.424 539.52 141.635 537.873 141.635C536.142 141.635 535.014 142.521 535.014 143.87ZM558.499 143.69C558.499 142.354 557.966 141.642 556.948 141.642C556.201 141.642 555.62 142.105 555.44 142.853H555.287C555.128 142.084 554.637 141.642 553.931 141.642C553.211 141.642 552.678 142.098 552.498 142.88H552.346V141.787H551.121V149.331H552.339V144.216C552.339 143.386 552.72 142.874 553.329 142.874C553.903 142.874 554.215 143.303 554.215 144.112V149.331H555.426V144.216C555.426 143.386 555.8 142.874 556.395 142.874C556.962 142.874 557.281 143.31 557.281 144.119V149.331H558.499V143.69ZM562.451 149.456C563.517 149.456 564.327 149.013 564.687 148.238H564.818V149.338H566.14V144.182C566.14 142.597 565.102 141.683 563.282 141.683C561.662 141.683 560.479 142.527 560.34 143.773H561.697C561.877 143.178 562.451 142.832 563.254 142.832C564.223 142.832 564.763 143.316 564.763 144.182V144.846L562.783 144.95C561.025 145.054 560.056 145.843 560.056 147.186C560.056 148.549 561.012 149.456 562.451 149.456ZM562.88 148.3C561.994 148.3 561.441 147.85 561.441 147.123C561.441 146.39 561.967 145.974 562.97 145.919L564.763 145.829V146.625C564.763 147.587 563.96 148.3 562.88 148.3ZM574.993 144.216C574.806 142.583 573.664 141.635 571.906 141.635C569.809 141.635 568.598 142.887 568.598 145.088V146.016C568.598 148.217 569.809 149.477 571.906 149.477C573.664 149.477 574.806 148.528 574.993 146.923H573.623C573.484 147.774 572.82 148.279 571.892 148.279C570.667 148.279 569.989 147.421 569.989 145.87V145.234C569.989 143.683 570.667 142.825 571.892 142.825C572.813 142.825 573.491 143.344 573.623 144.216H574.993Z" fill="white"/>
<path d="M431.55 59.5686C431.55 51.5121 438.081 44.9811 446.137 44.9811H544.037C552.094 44.9811 558.625 51.5121 558.625 59.5686C558.625 67.625 552.094 74.1561 544.037 74.1561H446.137C438.081 74.1561 431.55 67.625 431.55 59.5686Z" fill="#343433"/>
<path d="M451.53 65.0686H452.914V58.7078H456.139V57.5658H452.893V56.8114C452.893 56.1123 453.391 55.7455 454.34 55.7455C454.686 55.7455 455.862 55.7732 456.139 55.8009V54.728C455.932 54.6934 454.672 54.6657 454.312 54.6657C452.402 54.6657 451.53 55.3371 451.53 56.8598V57.5658H449.509V58.7078H451.53V65.0686ZM461.296 55.7593C461.919 55.7593 462.369 55.3302 462.369 54.735C462.369 54.1328 461.919 53.7037 461.296 53.7037C460.68 53.7037 460.223 54.1328 460.223 54.735C460.223 55.3302 460.68 55.7593 461.296 55.7593ZM464.48 65.0686V63.9473H462.043V57.5243H458.202V58.6455H460.687V63.9473H458.147V65.0686H464.48ZM472.959 65.0686V63.9473H470.536V54.5827H466.681V55.7109H469.152V63.9473H466.626V65.0686H472.959ZM478.212 58.514C479.354 58.514 480.033 59.3238 480.033 60.6666H476.337C476.337 59.3169 477.043 58.514 478.212 58.514ZM480.047 63.0752C479.86 63.6912 479.188 64.0719 478.295 64.0719C477.105 64.0719 476.337 63.2552 476.337 61.9817V61.6425H481.396V60.8258C481.396 58.6802 480.199 57.3789 478.226 57.3789C476.267 57.3789 474.973 58.6871 474.973 60.6735V61.8225C474.973 63.9681 476.184 65.214 478.302 65.214C479.929 65.214 481.175 64.3419 481.375 63.0752H480.047ZM492.25 59.6076C492.25 60.7081 492.935 61.4003 494.312 61.7117L495.44 61.9678C496.354 62.1755 496.693 62.4592 496.693 63.0129C496.693 63.6705 496.084 64.0927 495.136 64.0927C494.222 64.0927 493.599 63.7259 493.447 63.0822H492.049C492.173 64.4111 493.322 65.207 495.101 65.207C496.942 65.207 498.126 64.2934 498.126 62.8607C498.126 61.7533 497.454 61.1165 495.966 60.7843L494.873 60.542C493.994 60.3482 493.627 60.0506 493.627 59.5107C493.627 58.8878 494.201 58.4725 495.087 58.4725C495.918 58.4725 496.506 58.8532 496.631 59.4692H497.96C497.835 58.1611 496.755 57.372 495.108 57.372C493.378 57.372 492.25 58.258 492.25 59.6076ZM503.649 58.514C504.791 58.514 505.47 59.3238 505.47 60.6666H501.774C501.774 59.3169 502.48 58.514 503.649 58.514ZM505.483 63.0752C505.297 63.6912 504.625 64.0719 503.732 64.0719C502.542 64.0719 501.774 63.2552 501.774 61.9817V61.6425H506.833V60.8258C506.833 58.6802 505.636 57.3789 503.663 57.3789C501.704 57.3789 500.41 58.6871 500.41 60.6735V61.8225C500.41 63.9681 501.621 65.214 503.739 65.214C505.366 65.214 506.612 64.3419 506.812 63.0752H505.483ZM511.789 59.4484V57.5243H508.806V58.5902H510.446V64.0027H508.951V65.0686H510.446H511.796H514.087V64.0027H511.796V61.7048C511.796 59.8568 512.744 58.7978 514.447 58.7978C514.862 58.7978 515.354 58.8878 515.693 59.0124V57.4897C515.444 57.3859 515.035 57.3305 514.606 57.3305C513.16 57.3305 512.281 58.0295 511.983 59.4484H511.789ZM517.029 57.5243L519.756 65.0686H521.299L524.02 57.5243H522.545L520.587 63.6497H520.49L518.517 57.5243H517.029ZM529.086 58.514C530.228 58.514 530.907 59.3238 530.907 60.6666H527.211C527.211 59.3169 527.917 58.514 529.086 58.514ZM530.92 63.0752C530.734 63.6912 530.062 64.0719 529.169 64.0719C527.979 64.0719 527.211 63.2552 527.211 61.9817V61.6425H532.27V60.8258C532.27 58.6802 531.073 57.3789 529.1 57.3789C527.141 57.3789 525.847 58.6871 525.847 60.6735V61.8225C525.847 63.9681 527.058 65.214 529.176 65.214C530.803 65.214 532.049 64.3419 532.249 63.0752H530.92ZM537.226 59.4484V57.5243H534.243V58.5902H535.883V64.0027H534.388V65.0686H535.883H537.233H539.524V64.0027H537.233V61.7048C537.233 59.8568 538.181 58.7978 539.884 58.7978C540.299 58.7978 540.791 58.8878 541.13 59.0124V57.4897C540.881 57.3859 540.472 57.3305 540.043 57.3305C538.597 57.3305 537.718 58.0295 537.42 59.4484H537.226Z" fill="white"/>
<path d="M88.9868 62.7186C88.9868 54.6622 95.5179 48.1311 103.574 48.1311H184.474C192.531 48.1311 199.062 54.6622 199.062 62.7186C199.062 70.7751 192.531 77.3061 184.474 77.3061H103.574C95.5179 77.3061 88.9868 70.7751 88.9868 62.7186Z" fill="#343433"/>
<path d="M113.334 63.1036C113.147 61.4701 112.005 60.5219 110.247 60.5219C108.15 60.5219 106.938 61.7747 106.938 63.9757V64.9032C106.938 67.1042 108.15 68.3639 110.247 68.3639C112.005 68.3639 113.147 67.4156 113.334 65.8099H111.963C111.825 66.6612 111.16 67.1665 110.233 67.1665C109.008 67.1665 108.33 66.3082 108.33 64.7578V64.121C108.33 62.5706 109.008 61.7124 110.233 61.7124C111.153 61.7124 111.832 62.2315 111.963 63.1036H113.334ZM118.712 58.9092C119.335 58.9092 119.785 58.4801 119.785 57.8849C119.785 57.2827 119.335 56.8536 118.712 56.8536C118.096 56.8536 117.639 57.2827 117.639 57.8849C117.639 58.4801 118.096 58.9092 118.712 58.9092ZM121.896 68.2185V67.0972H119.459V60.6742H115.618V61.7955H118.103V67.0972H115.563V68.2185H121.896ZM132.708 62.7575C132.708 63.858 133.393 64.5502 134.77 64.8616L135.898 65.1177C136.812 65.3254 137.151 65.6091 137.151 66.1629C137.151 66.8204 136.542 67.2426 135.594 67.2426C134.68 67.2426 134.057 66.8758 133.905 66.2321H132.507C132.631 67.561 133.78 68.3569 135.559 68.3569C137.4 68.3569 138.584 67.4433 138.584 66.0106C138.584 64.9032 137.912 64.2664 136.424 63.9342L135.331 63.6919C134.452 63.4981 134.085 63.2005 134.085 62.6606C134.085 62.0377 134.659 61.6224 135.545 61.6224C136.376 61.6224 136.964 62.0031 137.089 62.6191H138.418C138.293 61.311 137.213 60.5219 135.566 60.5219C133.836 60.5219 132.708 61.4079 132.708 62.7575ZM144.107 61.6639C145.249 61.6639 145.928 62.4737 145.928 63.8165H142.232C142.232 62.4668 142.938 61.6639 144.107 61.6639ZM145.942 66.2251C145.755 66.8411 145.083 67.2218 144.19 67.2218C143 67.2218 142.232 66.4051 142.232 65.1316V64.7924H147.291V63.9757C147.291 61.8301 146.094 60.5288 144.121 60.5288C142.162 60.5288 140.868 61.837 140.868 63.8234V64.9724C140.868 67.118 142.079 68.3639 144.197 68.3639C145.824 68.3639 147.07 67.4918 147.27 66.2251H145.942ZM152.247 62.5983V60.6742H149.264V61.7401H150.904V67.1526H149.409V68.2185H150.904H152.254H154.545V67.1526H152.254V64.8547C152.254 63.0067 153.202 61.9477 154.905 61.9477C155.32 61.9477 155.812 62.0377 156.151 62.1623V60.6396C155.902 60.5358 155.493 60.4804 155.064 60.4804C153.618 60.4804 152.739 61.1794 152.441 62.5983H152.247ZM157.487 60.6742L160.214 68.2185H161.757L164.478 60.6742H163.003L161.045 66.7996H160.948L158.975 60.6742H157.487ZM169.544 61.6639C170.686 61.6639 171.365 62.4737 171.365 63.8165H167.669C167.669 62.4668 168.375 61.6639 169.544 61.6639ZM171.378 66.2251C171.192 66.8411 170.52 67.2218 169.627 67.2218C168.437 67.2218 167.669 66.4051 167.669 65.1316V64.7924H172.728V63.9757C172.728 61.8301 171.531 60.5288 169.558 60.5288C167.599 60.5288 166.305 61.837 166.305 63.8234V64.9724C166.305 67.118 167.516 68.3639 169.634 68.3639C171.261 68.3639 172.507 67.4918 172.707 66.2251H171.378ZM177.684 62.5983V60.6742H174.701V61.7401H176.341V67.1526H174.846V68.2185H176.341H177.691H179.982V67.1526H177.691V64.8547C177.691 63.0067 178.639 61.9477 180.342 61.9477C180.757 61.9477 181.249 62.0377 181.588 62.1623V60.6396C181.339 60.5358 180.93 60.4804 180.501 60.4804C179.055 60.4804 178.176 61.1794 177.878 62.5983H177.684Z" fill="white"/>
<path d="M42.5243 115.481C42.5243 107.425 49.0553 100.894 57.1118 100.894H147.012C155.068 100.894 161.599 107.425 161.599 115.481C161.599 123.538 155.068 130.069 147.012 130.069H57.1118C49.0553 130.069 42.5243 123.538 42.5243 115.481Z" fill="#343433"/>
<path d="M68.0176 113.437H66.6749L65.782 119.285H65.6228L64.5223 113.451H63.2903L62.1898 119.285H62.0306L61.1378 113.437H59.795L61.3869 120.981H62.6674L63.8717 115.326H63.9479L65.1453 120.981H66.4257L68.0176 113.437ZM72.4684 114.427C73.6104 114.427 74.2887 115.236 74.2887 116.579H70.5927C70.5927 115.229 71.2987 114.427 72.4684 114.427ZM74.3025 118.988C74.1157 119.604 73.4443 119.984 72.5514 119.984C71.361 119.984 70.5927 119.168 70.5927 117.894V117.555H75.6522V116.738C75.6522 114.593 74.4548 113.291 72.4822 113.291C70.5235 113.291 69.2292 114.6 69.2292 116.586V117.735C69.2292 119.881 70.4404 121.126 72.5584 121.126C74.1849 121.126 75.4307 120.254 75.6315 118.988H74.3025ZM81.4457 121.106C83.183 121.106 84.2904 119.867 84.2904 117.894V116.524C84.2904 114.551 83.183 113.312 81.4457 113.312C80.359 113.312 79.57 113.79 79.2655 114.634H79.127V110.495H77.7012V120.981H79.0993V119.791H79.2309C79.5838 120.642 80.359 121.106 81.4457 121.106ZM80.9889 119.874C79.833 119.874 79.0924 119.057 79.0924 117.763V116.634C79.0924 115.333 79.833 114.516 80.9889 114.516C82.1517 114.516 82.8854 115.34 82.8854 116.634V117.763C82.8854 119.057 82.1517 119.874 80.9889 119.874ZM94.9845 115.52C94.9845 116.621 95.6697 117.313 97.0471 117.624L98.1753 117.88C99.0889 118.088 99.428 118.372 99.428 118.925C99.428 119.583 98.819 120.005 97.8707 120.005C96.9571 120.005 96.3342 119.638 96.1819 118.995H94.7838C94.9084 120.324 96.0573 121.12 97.8361 121.12C99.6772 121.12 100.861 120.206 100.861 118.773C100.861 117.666 100.189 117.029 98.7013 116.697L97.6077 116.454C96.7287 116.261 96.3619 115.963 96.3619 115.423C96.3619 114.8 96.9363 114.385 97.8223 114.385C98.6528 114.385 99.2412 114.766 99.3657 115.382H100.695C100.57 114.074 99.4903 113.284 97.843 113.284C96.1127 113.284 94.9845 114.17 94.9845 115.52ZM106.384 114.427C107.526 114.427 108.205 115.236 108.205 116.579H104.509C104.509 115.229 105.215 114.427 106.384 114.427ZM108.218 118.988C108.032 119.604 107.36 119.984 106.467 119.984C105.277 119.984 104.509 119.168 104.509 117.894V117.555H109.568V116.738C109.568 114.593 108.371 113.291 106.398 113.291C104.439 113.291 103.145 114.6 103.145 116.586V117.735C103.145 119.881 104.356 121.126 106.474 121.126C108.101 121.126 109.347 120.254 109.547 118.988H108.218ZM114.524 115.361V113.437H111.541V114.503H113.181V119.915H111.686V120.981H113.181H114.531H116.822V119.915H114.531V117.617C114.531 115.769 115.479 114.71 117.182 114.71C117.597 114.71 118.089 114.8 118.428 114.925V113.402C118.179 113.298 117.77 113.243 117.341 113.243C115.895 113.243 115.016 113.942 114.718 115.361H114.524ZM119.764 113.437L122.491 120.981H124.034L126.755 113.437H125.28L123.322 119.562H123.225L121.252 113.437H119.764ZM131.821 114.427C132.963 114.427 133.642 115.236 133.642 116.579H129.946C129.946 115.229 130.652 114.427 131.821 114.427ZM133.655 118.988C133.469 119.604 132.797 119.984 131.904 119.984C130.714 119.984 129.946 119.168 129.946 117.894V117.555H135.005V116.738C135.005 114.593 133.808 113.291 131.835 113.291C129.876 113.291 128.582 114.6 128.582 116.586V117.735C128.582 119.881 129.793 121.126 131.911 121.126C133.538 121.126 134.784 120.254 134.984 118.988H133.655ZM139.961 115.361V113.437H136.978V114.503H138.618V119.915H137.123V120.981H138.618H139.968H142.259V119.915H139.968V117.617C139.968 115.769 140.916 114.71 142.619 114.71C143.034 114.71 143.526 114.8 143.865 114.925V113.402C143.616 113.298 143.207 113.243 142.778 113.243C141.332 113.243 140.453 113.942 140.155 115.361H139.961Z" fill="white"/>
</svg>
