<svg width="630" height="434" viewBox="0 0 630 434" fill="none" xmlns="http://www.w3.org/2000/svg">
<path d="M362.644 105.619C272 105.619 263.419 195 175.219 195C141.75 195 101.98 195 101.98 195C101.98 195 101.98 195 101.98 195C40.1622 195 37.7999 272.569 101.981 272.569" stroke="#CCA000" stroke-width="2.3625"/>
<path d="M216.562 271.388C305.943 271.388 296.1 307.613 366.581 307.613" stroke="#CCA000" stroke-width="2.3625"/>
<path d="M216.562 271.388C298.069 271.388 311.062 345.019 222.074 345.019" stroke="#CCA000" stroke-width="2.3625"/>
<path d="M315 187.912C315 148.931 311.456 105.619 361.856 105.619C330.356 105.619 292.477 107.194 271.687 107.194" stroke="#CCA000" stroke-width="2.3625"/>
<rect x="395.718" y="26.4748" width="218.925" height="143.325" rx="14.5688" stroke="#CCA000" stroke-width="2.3625"/>
<circle cx="315" cy="216.656" r="34.65" fill="#CCA000"/>
<path d="M300.861 227.092C303.352 227.092 304.543 226.169 305.42 223.548L308.926 213.24H306.25L303.998 221.093H303.842L301.59 213.24H298.803L302.383 223.493L302.282 223.88C302.042 224.683 301.479 225.034 300.455 225.034C300.316 225.034 299.956 225.024 299.892 225.006V227.073C299.966 227.082 300.427 227.092 300.861 227.092ZM315.175 223.64C318.045 223.64 319.853 221.896 319.853 219.118V217.549C319.853 214.772 318.045 213.027 315.175 213.027C312.304 213.027 310.496 214.772 310.496 217.549V219.118C310.496 221.896 312.304 223.64 315.175 223.64ZM315.175 215.095C316.531 215.095 317.371 216.073 317.371 217.651V219.017C317.371 220.586 316.531 221.573 315.175 221.573C313.818 221.573 312.978 220.586 312.978 219.017V217.651C312.978 216.073 313.818 215.095 315.175 215.095ZM331.011 213.24H328.492V219.118C328.492 220.53 327.652 221.425 326.36 221.425C325.077 221.425 324.477 220.715 324.477 219.22V213.24H321.949V219.82C321.949 222.302 323.13 223.631 325.345 223.631C326.812 223.631 327.91 222.939 328.409 221.711H328.566V223.419H331.011V213.24Z" fill="white"/>
<path d="M344.925 97.7436C344.925 95.134 347.04 93.0186 349.65 93.0186H473.575C476.184 93.0186 478.3 95.134 478.3 97.7436V112.744C478.3 115.353 476.184 117.469 473.575 117.469H349.65C347.04 117.469 344.925 115.353 344.925 112.744V97.7436Z" fill="#CCA000"/>
<circle cx="361.856" cy="105.244" r="5.11876" fill="white"/>
<path d="M373.373 103.199L376.1 110.744H377.644L380.364 103.199H378.889L376.931 109.325H376.834L374.861 103.199H373.373ZM385.936 103.082C384.842 103.082 384.067 103.538 383.714 104.397H383.582V103.199H382.191V113.277H383.617V109.546H383.749C384.053 110.391 384.842 110.868 385.936 110.868C387.673 110.868 388.78 109.629 388.78 107.664V106.286C388.78 104.32 387.673 103.082 385.936 103.082ZM385.472 104.314C386.635 104.314 387.375 105.13 387.375 106.425V107.553C387.375 108.847 386.635 109.671 385.472 109.671C384.316 109.671 383.582 108.854 383.582 107.553V106.425C383.582 105.13 384.316 104.314 385.472 104.314ZM390.656 110.744H392.041V106.321C392.041 105.103 392.816 104.293 393.972 104.293C395.086 104.293 395.605 104.902 395.605 106.196V110.744H396.996V105.85C396.996 104.037 396.11 103.054 394.47 103.054C393.342 103.054 392.491 103.58 392.096 104.514H391.999V103.199H390.656V110.744ZM408.687 107.442V106.397C408.687 105.11 409.435 104.279 410.604 104.279C411.767 104.279 412.522 105.103 412.522 106.397V107.442C412.522 108.729 411.767 109.56 410.604 109.56C409.435 109.56 408.687 108.729 408.687 107.442ZM410.57 113.574C412.66 113.574 413.913 112.508 413.913 110.737V103.199H412.542V104.397H412.411C412.106 103.573 411.276 103.075 410.182 103.075C408.403 103.075 407.275 104.314 407.275 106.286V107.574C407.275 109.539 408.396 110.785 410.134 110.785C411.241 110.785 412.093 110.28 412.39 109.47H412.522V110.73C412.522 111.865 411.836 112.488 410.591 112.488C409.635 112.488 408.923 112.107 408.777 111.519H407.407C407.552 112.792 408.756 113.574 410.57 113.574ZM418.426 110.868C419.492 110.868 420.302 110.425 420.661 109.65H420.793V110.75H422.115V105.594C422.115 104.009 421.077 103.095 419.256 103.095C417.637 103.095 416.453 103.94 416.315 105.186H417.671C417.851 104.59 418.426 104.244 419.229 104.244C420.198 104.244 420.738 104.729 420.738 105.594V106.258L418.758 106.362C417 106.466 416.031 107.255 416.031 108.598C416.031 109.961 416.986 110.868 418.426 110.868ZM418.855 109.712C417.969 109.712 417.415 109.262 417.415 108.536C417.415 107.802 417.941 107.387 418.945 107.331L420.738 107.241V108.037C420.738 108.999 419.935 109.712 418.855 109.712ZM426.372 101.137V103.241H424.379V104.383H426.372V108.459C426.372 110.079 427.216 110.771 429.147 110.771C429.438 110.771 430.532 110.744 430.684 110.716V109.581C430.518 109.602 429.597 109.615 429.244 109.615C428.282 109.615 427.763 109.207 427.763 108.459V104.383H430.725V103.241H427.742V101.137H426.372ZM436.304 104.189C437.446 104.189 438.125 104.999 438.125 106.342H434.429C434.429 104.992 435.135 104.189 436.304 104.189ZM438.139 108.75C437.952 109.366 437.28 109.747 436.387 109.747C435.197 109.747 434.429 108.93 434.429 107.657V107.317H439.488V106.501C439.488 104.355 438.291 103.054 436.318 103.054C434.359 103.054 433.065 104.362 433.065 106.348V107.497C433.065 109.643 434.276 110.889 436.394 110.889C438.021 110.889 439.267 110.017 439.467 108.75H438.139ZM448.812 103.199H447.469L446.576 109.048H446.417L445.316 103.213H444.084L442.984 109.048H442.825L441.932 103.199H440.589L442.181 110.744H443.461L444.666 105.089H444.742L445.939 110.744H447.22L448.812 103.199ZM452.342 110.868C453.408 110.868 454.217 110.425 454.577 109.65H454.709V110.75H456.031V105.594C456.031 104.009 454.993 103.095 453.172 103.095C451.553 103.095 450.369 103.94 450.231 105.186H451.587C451.767 104.59 452.342 104.244 453.145 104.244C454.114 104.244 454.654 104.729 454.654 105.594V106.258L452.674 106.362C450.916 106.466 449.947 107.255 449.947 108.598C449.947 109.961 450.902 110.868 452.342 110.868ZM452.771 109.712C451.885 109.712 451.331 109.262 451.331 108.536C451.331 107.802 451.857 107.387 452.861 107.331L454.654 107.241V108.037C454.654 108.999 453.851 109.712 452.771 109.712ZM459.506 113.443C461.042 113.443 461.748 112.848 462.406 110.972L465.174 103.199H463.7L461.727 109.373H461.631L459.644 103.199H458.121L460.869 110.799L460.752 111.173C460.475 111.969 460.08 112.273 459.353 112.273C459.243 112.273 459.014 112.266 458.938 112.252V113.422C459.028 113.429 459.291 113.443 459.506 113.443Z" fill="white"/>
<path d="M88.9869 62.7186C88.9869 54.6622 95.518 48.1311 103.574 48.1311H184.474C192.531 48.1311 199.062 54.6622 199.062 62.7186C199.062 70.7751 192.531 77.3061 184.474 77.3061H103.574C95.518 77.3061 88.9869 70.7751 88.9869 62.7186Z" fill="#343433"/>
<path d="M113.334 63.1037C113.147 61.4703 112.005 60.522 110.247 60.522C108.15 60.522 106.938 61.7748 106.938 63.9758V64.9033C106.938 67.1043 108.15 68.364 110.247 68.364C112.005 68.364 113.147 67.4157 113.334 65.81H111.963C111.825 66.6613 111.161 67.1666 110.233 67.1666C109.008 67.1666 108.33 66.3083 108.33 64.7579V64.1212C108.33 62.5708 109.008 61.7125 110.233 61.7125C111.154 61.7125 111.832 62.2316 111.963 63.1037H113.334ZM118.712 58.9094C119.335 58.9094 119.785 58.4802 119.785 57.885C119.785 57.2828 119.335 56.8537 118.712 56.8537C118.096 56.8537 117.639 57.2828 117.639 57.885C117.639 58.4802 118.096 58.9094 118.712 58.9094ZM121.896 68.2186V67.0974H119.46V60.6743H115.618V61.7956H118.103V67.0974H115.563V68.2186H121.896ZM132.708 62.7576C132.708 63.8581 133.393 64.5503 134.77 64.8618L135.898 65.1178C136.812 65.3255 137.151 65.6093 137.151 66.163C137.151 66.8205 136.542 67.2427 135.594 67.2427C134.68 67.2427 134.057 66.8759 133.905 66.2322H132.507C132.632 67.5611 133.78 68.3571 135.559 68.3571C137.4 68.3571 138.584 67.4434 138.584 66.0107C138.584 64.9033 137.913 64.2665 136.424 63.9343L135.331 63.692C134.452 63.4982 134.085 63.2006 134.085 62.6607C134.085 62.0378 134.659 61.6225 135.545 61.6225C136.376 61.6225 136.964 62.0032 137.089 62.6192H138.418C138.293 61.3111 137.213 60.522 135.566 60.522C133.836 60.522 132.708 61.408 132.708 62.7576ZM144.107 61.6641C145.249 61.6641 145.928 62.4739 145.928 63.8166H142.232C142.232 62.4669 142.938 61.6641 144.107 61.6641ZM145.942 66.2253C145.755 66.8413 145.083 67.2219 144.191 67.2219C143 67.2219 142.232 66.4052 142.232 65.1317V64.7925H147.291V63.9758C147.291 61.8302 146.094 60.529 144.121 60.529C142.163 60.529 140.868 61.8371 140.868 63.8235V64.9725C140.868 67.1181 142.08 68.364 144.197 68.364C145.824 68.364 147.07 67.4919 147.271 66.2253H145.942ZM152.247 62.5985V60.6743H149.264V61.7402H150.905V67.1527H149.41V68.2186H150.905H152.254H154.545V67.1527H152.254V64.8548C152.254 63.0068 153.202 61.9478 154.905 61.9478C155.32 61.9478 155.812 62.0378 156.151 62.1624V60.6397C155.902 60.5359 155.493 60.4805 155.064 60.4805C153.618 60.4805 152.739 61.1796 152.441 62.5985H152.247ZM157.487 60.6743L160.214 68.2186H161.758L164.478 60.6743H163.003L161.045 66.7997H160.948L158.975 60.6743H157.487ZM169.544 61.6641C170.686 61.6641 171.365 62.4739 171.365 63.8166H167.669C167.669 62.4669 168.375 61.6641 169.544 61.6641ZM171.379 66.2253C171.192 66.8413 170.52 67.2219 169.627 67.2219C168.437 67.2219 167.669 66.4052 167.669 65.1317V64.7925H172.728V63.9758C172.728 61.8302 171.531 60.529 169.558 60.529C167.6 60.529 166.305 61.8371 166.305 63.8235V64.9725C166.305 67.1181 167.516 68.364 169.634 68.364C171.261 68.364 172.507 67.4919 172.707 66.2253H171.379ZM177.684 62.5985V60.6743H174.701V61.7402H176.342V67.1527H174.846V68.2186H176.342H177.691H179.982V67.1527H177.691V64.8548C177.691 63.0068 178.639 61.9478 180.342 61.9478C180.757 61.9478 181.249 62.0378 181.588 62.1624V60.6397C181.339 60.5359 180.93 60.4805 180.501 60.4805C179.055 60.4805 178.176 61.1796 177.878 62.5985H177.684Z" fill="white"/>
<rect x="27.1681" y="34.3498" width="198.45" height="110.25" rx="14.5688" stroke="#CCA000" stroke-width="2.3625"/>
<path d="M42.5244 115.481C42.5244 107.425 49.0554 100.894 57.1119 100.894H147.012C155.068 100.894 161.599 107.425 161.599 115.481C161.599 123.538 155.068 130.069 147.012 130.069H57.1119C49.0554 130.069 42.5244 123.538 42.5244 115.481Z" fill="#343433"/>
<path d="M68.0178 113.437H66.675L65.7822 119.285H65.623L64.5225 113.451H63.2905L62.19 119.285H62.0308L61.1379 113.437H59.7952L61.3871 120.981H62.6675L63.8719 115.326H63.948L65.1454 120.981H66.4258L68.0178 113.437ZM72.4685 114.427C73.6105 114.427 74.2888 115.236 74.2888 116.579H70.5928C70.5928 115.229 71.2988 114.427 72.4685 114.427ZM74.3027 118.988C74.1158 119.604 73.4444 119.984 72.5516 119.984C71.3611 119.984 70.5928 119.168 70.5928 117.894V117.555H75.6523V116.738C75.6523 114.593 74.4549 113.291 72.4823 113.291C70.5236 113.291 69.2293 114.6 69.2293 116.586V117.735C69.2293 119.881 70.4405 121.126 72.5585 121.126C74.185 121.126 75.4309 120.254 75.6316 118.988H74.3027ZM81.4458 121.106C83.1831 121.106 84.2905 119.867 84.2905 117.894V116.524C84.2905 114.551 83.1831 113.312 81.4458 113.312C80.3592 113.312 79.5701 113.79 79.2656 114.634H79.1272V110.495H77.7014V120.981H79.0995V119.791H79.231C79.584 120.642 80.3592 121.106 81.4458 121.106ZM80.989 119.874C79.8331 119.874 79.0926 119.057 79.0926 117.763V116.634C79.0926 115.333 79.8331 114.516 80.989 114.516C82.1518 114.516 82.8855 115.34 82.8855 116.634V117.763C82.8855 119.057 82.1518 119.874 80.989 119.874ZM94.9846 115.52C94.9846 116.621 95.6698 117.313 97.0472 117.624L98.1754 117.88C99.089 118.088 99.4282 118.372 99.4282 118.925C99.4282 119.583 98.8191 120.005 97.8708 120.005C96.9572 120.005 96.3343 119.638 96.182 118.995H94.7839C94.9085 120.324 96.0574 121.12 97.8362 121.12C99.6773 121.12 100.861 120.206 100.861 118.773C100.861 117.666 100.19 117.029 98.7014 116.697L97.6078 116.454C96.7288 116.261 96.362 115.963 96.362 115.423C96.362 114.8 96.9365 114.385 97.8224 114.385C98.653 114.385 99.2413 114.766 99.3659 115.382H100.695C100.57 114.074 99.4905 113.284 97.8432 113.284C96.1128 113.284 94.9846 114.17 94.9846 115.52ZM106.384 114.427C107.526 114.427 108.205 115.236 108.205 116.579H104.509C104.509 115.229 105.215 114.427 106.384 114.427ZM108.219 118.988C108.032 119.604 107.36 119.984 106.467 119.984C105.277 119.984 104.509 119.168 104.509 117.894V117.555H109.568V116.738C109.568 114.593 108.371 113.291 106.398 113.291C104.44 113.291 103.145 114.6 103.145 116.586V117.735C103.145 119.881 104.356 121.126 106.474 121.126C108.101 121.126 109.347 120.254 109.548 118.988H108.219ZM114.524 115.361V113.437H111.541V114.503H113.182V119.915H111.687V120.981H113.182H114.531H116.822V119.915H114.531V117.617C114.531 115.769 115.479 114.71 117.182 114.71C117.597 114.71 118.089 114.8 118.428 114.925V113.402C118.179 113.298 117.77 113.243 117.341 113.243C115.895 113.243 115.016 113.942 114.718 115.361H114.524ZM119.764 113.437L122.491 120.981H124.035L126.755 113.437H125.28L123.322 119.562H123.225L121.252 113.437H119.764ZM131.821 114.427C132.963 114.427 133.642 115.236 133.642 116.579H129.946C129.946 115.229 130.652 114.427 131.821 114.427ZM133.656 118.988C133.469 119.604 132.797 119.984 131.904 119.984C130.714 119.984 129.946 119.168 129.946 117.894V117.555H135.005V116.738C135.005 114.593 133.808 113.291 131.835 113.291C129.876 113.291 128.582 114.6 128.582 116.586V117.735C128.582 119.881 129.793 121.126 131.911 121.126C133.538 121.126 134.784 120.254 134.984 118.988H133.656ZM139.961 115.361V113.437H136.978V114.503H138.618V119.915H137.123V120.981H138.618H139.968H142.259V119.915H139.968V117.617C139.968 115.769 140.916 114.71 142.619 114.71C143.034 114.71 143.526 114.8 143.865 114.925V113.402C143.616 113.298 143.207 113.243 142.778 113.243C141.332 113.243 140.453 113.942 140.155 115.361H139.961Z" fill="white"/>
<path d="M177.974 99.3186C177.974 96.7091 180.09 94.5936 182.699 94.5936H272.625C275.234 94.5936 277.35 96.7091 277.35 99.3186V114.319C277.35 116.928 275.234 119.044 272.625 119.044H182.699C180.09 119.044 177.974 116.928 177.974 114.319V99.3186Z" fill="#CCA000"/>
<path d="M195.899 104.774H191.199V105.896H194.542V112.111C194.542 113.101 194.134 113.433 192.867 113.433C192.486 113.433 191.351 113.419 191.054 113.391V114.603C191.462 114.637 192.479 114.651 192.916 114.651C195.054 114.651 195.899 113.966 195.899 112.208V104.774ZM195.123 103.009C195.739 103.009 196.189 102.58 196.189 101.985C196.189 101.383 195.739 100.954 195.123 100.954C194.501 100.954 194.051 101.383 194.051 101.985C194.051 102.58 194.501 103.009 195.123 103.009ZM205.817 104.774H204.433V109.197C204.433 110.415 203.658 111.225 202.502 111.225C201.388 111.225 200.868 110.616 200.868 109.322V104.774H199.477V109.668C199.477 111.481 200.363 112.464 202.004 112.464C203.132 112.464 203.983 111.938 204.378 111.004H204.475V112.319H205.817V104.774ZM214.815 106.678C214.815 105.342 214.282 104.629 213.265 104.629C212.517 104.629 211.936 105.093 211.756 105.84H211.604C211.445 105.072 210.953 104.629 210.247 104.629C209.527 104.629 208.994 105.086 208.815 105.868H208.662V104.774H207.437V112.319H208.655V107.204C208.655 106.373 209.036 105.861 209.645 105.861C210.22 105.861 210.531 106.29 210.531 107.1V112.319H211.742V107.204C211.742 106.373 212.116 105.861 212.711 105.861C213.279 105.861 213.597 106.297 213.597 107.107V112.319H214.815V106.678ZM220.194 104.657C219.1 104.657 218.325 105.113 217.972 105.972H217.84V104.774H216.449V114.852H217.875V111.121H218.006C218.311 111.966 219.1 112.443 220.194 112.443C221.931 112.443 223.038 111.204 223.038 109.239V107.861C223.038 105.896 221.931 104.657 220.194 104.657ZM219.73 105.889C220.893 105.889 221.633 106.705 221.633 108V109.128C221.633 110.422 220.893 111.246 219.73 111.246C218.574 111.246 217.84 110.429 217.84 109.128V108C217.84 106.705 218.574 105.889 219.73 105.889ZM228.666 112.443C230.403 112.443 231.51 111.204 231.51 109.232V107.861C231.51 105.889 230.403 104.65 228.666 104.65C227.579 104.65 226.79 105.127 226.485 105.972H226.347V101.833H224.921V112.319H226.319V111.128H226.451C226.804 111.979 227.579 112.443 228.666 112.443ZM228.209 111.211C227.053 111.211 226.312 110.394 226.312 109.1V107.972C226.312 106.671 227.053 105.854 228.209 105.854C229.372 105.854 230.105 106.678 230.105 107.972V109.1C230.105 110.394 229.372 111.211 228.209 111.211ZM236.563 112.464C238.598 112.464 239.892 111.163 239.892 109.121V107.979C239.892 105.93 238.598 104.636 236.563 104.636C234.528 104.636 233.234 105.93 233.234 107.979V109.121C233.234 111.163 234.528 112.464 236.563 112.464ZM236.563 105.812C237.768 105.812 238.522 106.678 238.522 108.076V109.024C238.522 110.422 237.768 111.287 236.563 111.287C235.359 111.287 234.604 110.422 234.604 109.024V108.076C234.604 106.678 235.359 105.812 236.563 105.812ZM245.07 109.515L246.849 112.319H248.434L245.887 108.498L248.413 104.774H246.863L245.125 107.55H245.028L243.277 104.774H241.658L244.205 108.553L241.671 112.319H243.187L244.973 109.515H245.07Z" fill="white"/>
<circle cx="260.418" cy="106.819" r="5.11876" fill="white"/>
<path d="M481.95 318.656C481.95 310.6 488.481 304.069 496.537 304.069H577.437C585.494 304.069 592.025 310.6 592.025 318.656C592.025 326.713 585.494 333.244 577.437 333.244H496.537C488.481 333.244 481.95 326.713 481.95 318.656Z" fill="#343433"/>
<path d="M501.701 314.549V316.654H499.708V317.796H501.701V321.872C501.701 323.492 502.545 324.184 504.476 324.184C504.767 324.184 505.861 324.156 506.013 324.129V322.994C505.847 323.014 504.926 323.028 504.573 323.028C503.611 323.028 503.092 322.62 503.092 321.872V317.796H506.054V316.654H503.071V314.549H501.701ZM511.55 324.302C513.585 324.302 514.88 323 514.88 320.959V319.817C514.88 317.768 513.585 316.474 511.55 316.474C509.515 316.474 508.221 317.768 508.221 319.817V320.959C508.221 323 509.515 324.302 511.55 324.302ZM511.55 317.65C512.755 317.65 513.509 318.515 513.509 319.914V320.862C513.509 322.26 512.755 323.125 511.55 323.125C510.346 323.125 509.592 322.26 509.592 320.862V319.914C509.592 318.515 510.346 317.65 511.55 317.65ZM523.718 318.515C523.718 317.18 523.185 316.467 522.168 316.467C521.421 316.467 520.839 316.93 520.659 317.678H520.507C520.348 316.91 519.856 316.467 519.15 316.467C518.43 316.467 517.898 316.924 517.718 317.706H517.565V316.612H516.34V324.156H517.558V319.041C517.558 318.211 517.939 317.699 518.548 317.699C519.123 317.699 519.434 318.128 519.434 318.938V324.156H520.645V319.041C520.645 318.211 521.019 317.699 521.614 317.699C522.182 317.699 522.5 318.135 522.5 318.945V324.156H523.718V318.515ZM528.571 318.585L529.699 314.169H528.266L527.318 318.585H528.571ZM534.15 318.695C534.15 319.796 534.835 320.488 536.212 320.799L537.34 321.056C538.254 321.263 538.593 321.547 538.593 322.101C538.593 322.758 537.984 323.18 537.036 323.18C536.122 323.18 535.499 322.814 535.347 322.17H533.949C534.073 323.499 535.222 324.295 537.001 324.295C538.842 324.295 540.026 323.381 540.026 321.948C540.026 320.841 539.354 320.204 537.866 319.872L536.773 319.63C535.894 319.436 535.527 319.138 535.527 318.598C535.527 317.976 536.101 317.56 536.987 317.56C537.818 317.56 538.406 317.941 538.531 318.557H539.86C539.735 317.249 538.655 316.46 537.008 316.46C535.278 316.46 534.15 317.346 534.15 318.695ZM557.634 318.515C557.634 317.18 557.101 316.467 556.084 316.467C555.336 316.467 554.755 316.93 554.575 317.678H554.423C554.264 316.91 553.772 316.467 553.066 316.467C552.346 316.467 551.813 316.924 551.634 317.706H551.481V316.612H550.256V324.156H551.474V319.041C551.474 318.211 551.855 317.699 552.464 317.699C553.039 317.699 553.35 318.128 553.35 318.938V324.156H554.561V319.041C554.561 318.211 554.935 317.699 555.53 317.699C556.098 317.699 556.416 318.135 556.416 318.945V324.156H557.634V318.515ZM561.587 324.281C562.653 324.281 563.462 323.838 563.822 323.063H563.954V324.163H565.276V319.007C565.276 317.422 564.238 316.508 562.417 316.508C560.798 316.508 559.614 317.353 559.476 318.598H560.832C561.012 318.003 561.587 317.657 562.39 317.657C563.359 317.657 563.899 318.142 563.899 319.007V319.671L561.919 319.775C560.161 319.879 559.192 320.668 559.192 322.011C559.192 323.374 560.147 324.281 561.587 324.281ZM562.016 323.125C561.13 323.125 560.576 322.675 560.576 321.948C560.576 321.215 561.102 320.799 562.106 320.744L563.899 320.654V321.45C563.899 322.412 563.096 323.125 562.016 323.125ZM574.129 319.041C573.942 317.408 572.8 316.46 571.042 316.46C568.944 316.46 567.733 317.713 567.733 319.914V320.841C567.733 323.042 568.944 324.302 571.042 324.302C572.8 324.302 573.942 323.353 574.129 321.748H572.758C572.62 322.599 571.955 323.104 571.028 323.104C569.803 323.104 569.124 322.246 569.124 320.696V320.059C569.124 318.509 569.803 317.65 571.028 317.65C571.948 317.65 572.627 318.169 572.758 319.041H574.129Z" fill="white"/>
<path d="M426.825 384.019C426.825 375.962 433.356 369.431 441.412 369.431H581.312C589.369 369.431 595.9 375.962 595.9 384.019C595.9 392.075 589.369 398.606 581.312 398.606H441.412C433.356 398.606 426.825 392.075 426.825 384.019Z" fill="#343433"/>
<path d="M451.535 389.519L448.448 385.006L451.334 381.975H449.687L446.6 385.262H446.496V379.033H445.112V389.519H446.496V386.84L447.444 385.92L449.902 389.519H451.535ZM455.411 389.644C456.477 389.644 457.287 389.201 457.647 388.425H457.778V389.526H459.1V384.369C459.1 382.784 458.062 381.871 456.242 381.871C454.622 381.871 453.439 382.715 453.3 383.961H454.657C454.837 383.366 455.411 383.02 456.214 383.02C457.183 383.02 457.723 383.504 457.723 384.369V385.034L455.744 385.138C453.985 385.241 453.016 386.031 453.016 387.373C453.016 388.737 453.972 389.644 455.411 389.644ZM455.84 388.488C454.954 388.488 454.401 388.038 454.401 387.311C454.401 386.577 454.927 386.162 455.93 386.107L457.723 386.017V386.813C457.723 387.775 456.92 388.488 455.84 388.488ZM463.357 379.912V382.016H461.364V383.158H463.357V387.235C463.357 388.854 464.202 389.547 466.133 389.547C466.424 389.547 467.517 389.519 467.669 389.491V388.356C467.503 388.377 466.583 388.391 466.23 388.391C465.268 388.391 464.749 387.982 464.749 387.235V383.158H467.711V382.016H464.728V379.912H463.357ZM471.054 392.218C472.591 392.218 473.297 391.623 473.954 389.747L476.723 381.975H475.249L473.276 388.148H473.179L471.193 381.975H469.67L472.418 389.574L472.3 389.948C472.023 390.744 471.629 391.049 470.902 391.049C470.791 391.049 470.563 391.042 470.487 391.028V392.198C470.577 392.204 470.84 392.218 471.054 392.218ZM480.848 389.644C481.914 389.644 482.724 389.201 483.084 388.425H483.215V389.526H484.537V384.369C484.537 382.784 483.499 381.871 481.679 381.871C480.059 381.871 478.876 382.715 478.737 383.961H480.094C480.274 383.366 480.848 383.02 481.651 383.02C482.62 383.02 483.16 383.504 483.16 384.369V385.034L481.18 385.138C479.422 385.241 478.453 386.031 478.453 387.373C478.453 388.737 479.409 389.644 480.848 389.644ZM481.277 388.488C480.391 388.488 479.838 388.038 479.838 387.311C479.838 386.577 480.364 386.162 481.367 386.107L483.16 386.017V386.813C483.16 387.775 482.357 388.488 481.277 388.488ZM490.227 383.947L491.355 379.531H489.922L488.974 383.947H490.227ZM495.806 384.058C495.806 385.158 496.491 385.851 497.869 386.162L498.997 386.418C499.91 386.626 500.249 386.91 500.249 387.463C500.249 388.121 499.64 388.543 498.692 388.543C497.779 388.543 497.156 388.176 497.003 387.532H495.605C495.73 388.861 496.879 389.657 498.658 389.657C500.499 389.657 501.682 388.744 501.682 387.311C501.682 386.204 501.011 385.567 499.523 385.235L498.429 384.992C497.55 384.799 497.183 384.501 497.183 383.961C497.183 383.338 497.758 382.923 498.644 382.923C499.474 382.923 500.063 383.304 500.187 383.92H501.516C501.391 382.611 500.312 381.822 498.664 381.822C496.934 381.822 495.806 382.708 495.806 384.058ZM514.231 379.912V382.016H512.238V383.158H514.231V387.235C514.231 388.854 515.076 389.547 517.007 389.547C517.297 389.547 518.391 389.519 518.543 389.491V388.356C518.377 388.377 517.457 388.391 517.104 388.391C516.142 388.391 515.622 387.982 515.622 387.235V383.158H518.585V382.016H515.602V379.912H514.231ZM520.897 389.519H522.288V385.11C522.288 383.892 523.063 383.082 524.233 383.082C525.347 383.082 525.88 383.698 525.88 384.978V389.519H527.265V384.639C527.265 382.833 526.372 381.843 524.731 381.843C523.589 381.843 522.731 382.369 522.343 383.297H522.24V379.033H520.897V389.519ZM532.684 380.21C533.307 380.21 533.757 379.781 533.757 379.185C533.757 378.583 533.307 378.154 532.684 378.154C532.068 378.154 531.611 378.583 531.611 379.185C531.611 379.781 532.068 380.21 532.684 380.21ZM535.868 389.519V388.398H533.432V381.975H529.59V383.096H532.075V388.398H529.535V389.519H535.868ZM537.869 389.519H539.253V385.096C539.253 383.878 540.028 383.068 541.184 383.068C542.298 383.068 542.817 383.677 542.817 384.972V389.519H544.209V384.625C544.209 382.812 543.323 381.829 541.682 381.829C540.554 381.829 539.703 382.355 539.308 383.29H539.211V381.975H537.869V389.519ZM553.283 389.519L550.196 385.006L553.082 381.975H551.435L548.348 385.262H548.244V379.033H546.86V389.519H548.244V386.84L549.192 385.92L551.649 389.519H553.283ZM558.585 381.857C557.491 381.857 556.716 382.314 556.363 383.172H556.232V381.975H554.84V392.052H556.266V388.322H556.398C556.702 389.166 557.491 389.644 558.585 389.644C560.322 389.644 561.43 388.405 561.43 386.439V385.062C561.43 383.096 560.322 381.857 558.585 381.857ZM558.121 383.089C559.284 383.089 560.025 383.906 560.025 385.2V386.328C560.025 387.622 559.284 388.446 558.121 388.446C556.965 388.446 556.232 387.629 556.232 386.328V385.2C556.232 383.906 556.965 383.089 558.121 383.089ZM565.638 389.644C566.704 389.644 567.514 389.201 567.874 388.425H568.005V389.526H569.327V384.369C569.327 382.784 568.289 381.871 566.469 381.871C564.849 381.871 563.665 382.715 563.527 383.961H564.884C565.064 383.366 565.638 383.02 566.441 383.02C567.41 383.02 567.95 383.504 567.95 384.369V385.034L565.97 385.138C564.212 385.241 563.243 386.031 563.243 387.373C563.243 388.737 564.198 389.644 565.638 389.644ZM566.067 388.488C565.181 388.488 564.628 388.038 564.628 387.311C564.628 386.577 565.154 386.162 566.157 386.107L567.95 386.017V386.813C567.95 387.775 567.147 388.488 566.067 388.488ZM572.934 385.172C572.934 383.878 573.667 383.054 574.83 383.054C575.986 383.054 576.726 383.871 576.726 385.172V386.3C576.726 387.595 575.986 388.411 574.83 388.411C573.667 388.411 572.934 387.595 572.934 386.3V385.172ZM576.72 388.328V389.519H578.118V379.033H576.692V383.172H576.553C576.249 382.328 575.46 381.85 574.373 381.85C572.636 381.85 571.528 383.089 571.528 385.062V386.432C571.528 388.405 572.636 389.644 574.373 389.644C575.46 389.644 576.235 389.18 576.588 388.328H576.72Z" fill="white"/>
<path d="M431.55 59.5686C431.55 51.5121 438.081 44.9811 446.137 44.9811H544.037C552.094 44.9811 558.625 51.5121 558.625 59.5686C558.625 67.625 552.094 74.1561 544.037 74.1561H446.137C438.081 74.1561 431.55 67.625 431.55 59.5686Z" fill="#343433"/>
<path d="M451.529 65.0686H452.914V58.7078H456.139V57.5658H452.893V56.8114C452.893 56.1123 453.391 55.7455 454.34 55.7455C454.686 55.7455 455.862 55.7732 456.139 55.8009V54.728C455.931 54.6934 454.672 54.6657 454.312 54.6657C452.402 54.6657 451.529 55.3371 451.529 56.8598V57.5658H449.508V58.7078H451.529V65.0686ZM461.296 55.7593C461.919 55.7593 462.369 55.3302 462.369 54.735C462.369 54.1328 461.919 53.7037 461.296 53.7037C460.68 53.7037 460.223 54.1328 460.223 54.735C460.223 55.3302 460.68 55.7593 461.296 55.7593ZM464.48 65.0686V63.9473H462.043V57.5243H458.202V58.6456H460.687V63.9473H458.147V65.0686H464.48ZM472.959 65.0686V63.9473H470.536V54.5827H466.681V55.7109H469.152V63.9473H466.626V65.0686H472.959ZM478.212 58.514C479.354 58.514 480.033 59.3238 480.033 60.6666H476.337C476.337 59.3169 477.043 58.514 478.212 58.514ZM480.046 63.0752C479.86 63.6912 479.188 64.0719 478.295 64.0719C477.105 64.0719 476.337 63.2552 476.337 61.9817V61.6425H481.396V60.8258C481.396 58.6802 480.199 57.3789 478.226 57.3789C476.267 57.3789 474.973 58.6871 474.973 60.6735V61.8225C474.973 63.9681 476.184 65.214 478.302 65.214C479.929 65.214 481.175 64.3419 481.375 63.0752H480.046ZM492.249 59.6076C492.249 60.7081 492.935 61.4003 494.312 61.7117L495.44 61.9678C496.354 62.1755 496.693 62.4592 496.693 63.0129C496.693 63.6705 496.084 64.0927 495.136 64.0927C494.222 64.0927 493.599 63.7259 493.447 63.0822H492.049C492.173 64.4111 493.322 65.207 495.101 65.207C496.942 65.207 498.126 64.2934 498.126 62.8607C498.126 61.7533 497.454 61.1165 495.966 60.7843L494.873 60.542C493.994 60.3482 493.627 60.0506 493.627 59.5107C493.627 58.8878 494.201 58.4725 495.087 58.4725C495.918 58.4725 496.506 58.8532 496.631 59.4692H497.96C497.835 58.1611 496.755 57.372 495.108 57.372C493.378 57.372 492.249 58.258 492.249 59.6076ZM503.649 58.514C504.791 58.514 505.47 59.3238 505.47 60.6666H501.773C501.773 59.3169 502.479 58.514 503.649 58.514ZM505.483 63.0752C505.296 63.6912 504.625 64.0719 503.732 64.0719C502.542 64.0719 501.773 63.2552 501.773 61.9817V61.6425H506.833V60.8258C506.833 58.6802 505.636 57.3789 503.663 57.3789C501.704 57.3789 500.41 58.6871 500.41 60.6735V61.8225C500.41 63.9681 501.621 65.214 503.739 65.214C505.366 65.214 506.612 64.3419 506.812 63.0752H505.483ZM511.789 59.4484V57.5243H508.806V58.5902H510.446V64.0027H508.951V65.0686H510.446H511.796H514.087V64.0027H511.796V61.7048C511.796 59.8568 512.744 58.7978 514.447 58.7978C514.862 58.7978 515.354 58.8878 515.693 59.0124V57.4897C515.444 57.3859 515.035 57.3305 514.606 57.3305C513.159 57.3305 512.28 58.0295 511.983 59.4484H511.789ZM517.029 57.5243L519.756 65.0686H521.299L524.019 57.5243H522.545L520.586 63.6497H520.49L518.517 57.5243H517.029ZM529.086 58.514C530.228 58.514 530.906 59.3238 530.906 60.6666H527.21C527.21 59.3169 527.916 58.514 529.086 58.514ZM530.92 63.0752C530.733 63.6912 530.062 64.0719 529.169 64.0719C527.979 64.0719 527.21 63.2552 527.21 61.9817V61.6425H532.27V60.8258C532.27 58.6802 531.073 57.3789 529.1 57.3789C527.141 57.3789 525.847 58.6871 525.847 60.6735V61.8225C525.847 63.9681 527.058 65.214 529.176 65.214C530.803 65.214 532.049 64.3419 532.249 63.0752H530.92ZM537.226 59.4484V57.5243H534.243V58.5902H535.883V64.0027H534.388V65.0686H535.883H537.233H539.524V64.0027H537.233V61.7048C537.233 59.8568 538.181 58.7978 539.884 58.7978C540.299 58.7978 540.79 58.8878 541.13 59.0124V57.4897C540.88 57.3859 540.472 57.3305 540.043 57.3305C538.596 57.3305 537.717 58.0295 537.42 59.4484H537.226Z" fill="white"/>
<path d="M85.0494 263.906C85.0494 261.297 87.1649 259.181 89.7744 259.181H229.449C232.059 259.181 234.174 261.297 234.174 263.906V278.906C234.174 281.516 232.059 283.631 229.449 283.631H89.7744C87.1649 283.631 85.0494 281.516 85.0494 278.906V263.906Z" fill="#CCA000"/>
<circle cx="101.981" cy="271.406" r="5.11876" fill="white"/>
<path d="M113.498 269.362L116.225 276.906H117.768L120.488 269.362H119.014L117.055 275.487H116.959L114.986 269.362H113.498ZM126.06 269.244C124.967 269.244 124.192 269.701 123.839 270.559H123.707V269.362H122.316V279.439H123.742V275.709H123.873C124.178 276.553 124.967 277.031 126.06 277.031C127.798 277.031 128.905 275.792 128.905 273.826V272.449C128.905 270.483 127.798 269.244 126.06 269.244ZM125.597 270.476C126.76 270.476 127.5 271.293 127.5 272.587V273.715C127.5 275.01 126.76 275.833 125.597 275.833C124.441 275.833 123.707 275.017 123.707 273.715V272.587C123.707 271.293 124.441 270.476 125.597 270.476ZM130.781 276.906H132.165V272.483C132.165 271.265 132.941 270.456 134.096 270.456C135.211 270.456 135.73 271.065 135.73 272.359V276.906H137.121V272.013C137.121 270.199 136.235 269.217 134.595 269.217C133.467 269.217 132.615 269.743 132.221 270.677H132.124V269.362H130.781V276.906ZM148.812 273.605V272.56C148.812 271.272 149.559 270.442 150.729 270.442C151.892 270.442 152.646 271.265 152.646 272.56V273.605C152.646 274.892 151.892 275.723 150.729 275.723C149.559 275.723 148.812 274.892 148.812 273.605ZM150.695 279.737C152.785 279.737 154.038 278.671 154.038 276.899V269.362H152.667V270.559H152.536C152.231 269.736 151.401 269.237 150.307 269.237C148.528 269.237 147.4 270.476 147.4 272.449V273.736C147.4 275.702 148.521 276.948 150.259 276.948C151.366 276.948 152.217 276.443 152.515 275.633H152.646V276.892C152.646 278.028 151.961 278.65 150.715 278.65C149.76 278.65 149.047 278.27 148.902 277.681H147.531C147.677 278.955 148.881 279.737 150.695 279.737ZM158.551 277.031C159.617 277.031 160.426 276.588 160.786 275.813H160.918V276.913H162.24V271.757C162.24 270.172 161.202 269.258 159.381 269.258C157.762 269.258 156.578 270.103 156.44 271.348H157.796C157.976 270.753 158.551 270.407 159.353 270.407C160.322 270.407 160.862 270.892 160.862 271.757V272.421L158.883 272.525C157.125 272.629 156.156 273.418 156.156 274.761C156.156 276.124 157.111 277.031 158.551 277.031ZM158.98 275.875C158.094 275.875 157.54 275.425 157.54 274.698C157.54 273.965 158.066 273.549 159.07 273.494L160.862 273.404V274.2C160.862 275.162 160.059 275.875 158.98 275.875ZM166.497 267.299V269.403H164.503V270.545H166.497V274.622C166.497 276.242 167.341 276.934 169.272 276.934C169.563 276.934 170.656 276.906 170.809 276.879V275.743C170.643 275.764 169.722 275.778 169.369 275.778C168.407 275.778 167.888 275.37 167.888 274.622V270.545H170.85V269.403H167.867V267.299H166.497ZM176.429 270.352C177.571 270.352 178.249 271.161 178.249 272.504H174.553C174.553 271.155 175.259 270.352 176.429 270.352ZM178.263 274.913C178.076 275.529 177.405 275.91 176.512 275.91C175.322 275.91 174.553 275.093 174.553 273.819V273.48H179.613V272.663C179.613 270.518 178.416 269.217 176.443 269.217C174.484 269.217 173.19 270.525 173.19 272.511V273.66C173.19 275.806 174.401 277.052 176.519 277.052C178.146 277.052 179.391 276.18 179.592 274.913H178.263ZM188.936 269.362H187.594L186.701 275.211H186.542L185.441 269.376H184.209L183.109 275.211H182.949L182.056 269.362H180.714L182.306 276.906H183.586L184.79 271.251H184.867L186.064 276.906H187.344L188.936 269.362ZM192.467 277.031C193.532 277.031 194.342 276.588 194.702 275.813H194.834V276.913H196.156V271.757C196.156 270.172 195.117 269.258 193.297 269.258C191.678 269.258 190.494 270.103 190.356 271.348H191.712C191.892 270.753 192.467 270.407 193.269 270.407C194.238 270.407 194.778 270.892 194.778 271.757V272.421L192.799 272.525C191.041 272.629 190.072 273.418 190.072 274.761C190.072 276.124 191.027 277.031 192.467 277.031ZM192.896 275.875C192.01 275.875 191.456 275.425 191.456 274.698C191.456 273.965 191.982 273.549 192.986 273.494L194.778 273.404V274.2C194.778 275.162 193.975 275.875 192.896 275.875ZM199.63 279.606C201.167 279.606 201.873 279.01 202.531 277.135L205.299 269.362H203.825L201.852 275.536H201.755L199.769 269.362H198.246L200.994 276.962L200.876 277.335C200.599 278.131 200.205 278.436 199.478 278.436C199.367 278.436 199.139 278.429 199.063 278.415V279.585C199.153 279.592 199.416 279.606 199.63 279.606Z" fill="white"/>
<circle cx="217.243" cy="271.406" r="5.11876" fill="white"/>
<path d="M45.6744 381.656C45.6744 373.6 52.2054 367.069 60.2619 367.069H150.162C158.218 367.069 164.749 373.6 164.749 381.656C164.749 389.713 158.218 396.244 150.162 396.244H60.2619C52.2054 396.244 45.6744 389.713 45.6744 381.656Z" fill="#343433"/>
<path d="M64.9593 383.855V382.81C64.9593 381.522 65.7068 380.692 66.8765 380.692C68.0393 380.692 68.7938 381.515 68.7938 382.81V383.855C68.7938 385.142 68.0393 385.973 66.8765 385.973C65.7068 385.973 64.9593 385.142 64.9593 383.855ZM66.8419 389.987C68.9322 389.987 70.185 388.921 70.185 387.149V379.612H68.8145V380.809H68.683C68.3785 379.986 67.5479 379.487 66.4543 379.487C64.6755 379.487 63.5473 380.726 63.5473 382.699V383.986C63.5473 385.952 64.6686 387.198 66.4059 387.198C67.5133 387.198 68.3646 386.693 68.6622 385.883H68.7938V387.143C68.7938 388.278 68.1085 388.901 66.8627 388.901C65.9075 388.901 65.1946 388.52 65.0493 387.932H63.6788C63.8242 389.205 65.0285 389.987 66.8419 389.987ZM75.6601 377.847C76.283 377.847 76.7329 377.418 76.7329 376.823C76.7329 376.221 76.283 375.791 75.6601 375.791C75.0441 375.791 74.5872 376.221 74.5872 376.823C74.5872 377.418 75.0441 377.847 75.6601 377.847ZM78.8439 387.156V386.035H76.4076V379.612H72.5662V380.733H75.051V386.035H72.5108V387.156H78.8439ZM82.644 377.549V379.654H80.6507V380.796H82.644V384.872C82.644 386.492 83.4884 387.184 85.4195 387.184C85.7102 387.184 86.8038 387.156 86.956 387.129V385.994C86.7899 386.014 85.8694 386.028 85.5164 386.028C84.5543 386.028 84.0352 385.62 84.0352 384.872V380.796H86.9976V379.654H84.0145V377.549H82.644ZM98.1346 381.695C98.1346 382.796 98.8199 383.488 100.197 383.799L101.325 384.056C102.239 384.263 102.578 384.547 102.578 385.101C102.578 385.758 101.969 386.18 101.021 386.18C100.107 386.18 99.4843 385.814 99.3321 385.17H97.9339C98.0585 386.499 99.2075 387.295 100.986 387.295C102.827 387.295 104.011 386.381 104.011 384.948C104.011 383.841 103.34 383.204 101.851 382.872L100.758 382.63C99.8788 382.436 99.512 382.138 99.512 381.598C99.512 380.976 100.086 380.56 100.972 380.56C101.803 380.56 102.391 380.941 102.516 381.557H103.845C103.72 380.249 102.64 379.46 100.993 379.46C99.2628 379.46 98.1346 380.346 98.1346 381.695ZM109.534 380.602C110.676 380.602 111.355 381.412 111.355 382.754H107.659C107.659 381.405 108.365 380.602 109.534 380.602ZM111.369 385.163C111.182 385.779 110.51 386.16 109.618 386.16C108.427 386.16 107.659 385.343 107.659 384.069V383.73H112.718V382.914C112.718 380.768 111.521 379.467 109.548 379.467C107.59 379.467 106.295 380.775 106.295 382.761V383.91C106.295 386.056 107.506 387.302 109.624 387.302C111.251 387.302 112.497 386.43 112.698 385.163H111.369ZM117.674 381.536V379.612H114.691V380.678H116.332V386.09H114.837V387.156H116.332H117.681H119.972V386.09H117.681V383.793C117.681 381.945 118.629 380.886 120.332 380.886C120.747 380.886 121.239 380.976 121.578 381.1V379.577C121.329 379.474 120.92 379.418 120.491 379.418C119.045 379.418 118.166 380.117 117.868 381.536H117.674ZM122.914 379.612L125.641 387.156H127.185L129.905 379.612H128.43L126.472 385.737H126.375L124.402 379.612H122.914ZM134.971 380.602C136.113 380.602 136.792 381.412 136.792 382.754H133.096C133.096 381.405 133.802 380.602 134.971 380.602ZM136.806 385.163C136.619 385.779 135.947 386.16 135.054 386.16C133.864 386.16 133.096 385.343 133.096 384.069V383.73H138.155V382.914C138.155 380.768 136.958 379.467 134.985 379.467C133.026 379.467 131.732 380.775 131.732 382.761V383.91C131.732 386.056 132.943 387.302 135.061 387.302C136.688 387.302 137.934 386.43 138.134 385.163H136.806ZM143.111 381.536V379.612H140.128V380.678H141.768V386.09H140.273V387.156H141.768H143.118H145.409V386.09H143.118V383.793C143.118 381.945 144.066 380.886 145.769 380.886C146.184 380.886 146.676 380.976 147.015 381.1V379.577C146.766 379.474 146.357 379.418 145.928 379.418C144.482 379.418 143.603 380.117 143.305 381.536H143.111Z" fill="white"/>
<path d="M474.075 143.831C474.075 135.775 480.606 129.244 488.662 129.244H578.562C586.619 129.244 593.15 135.775 593.15 143.831C593.15 151.888 586.619 158.419 578.562 158.419H488.662C480.606 158.419 474.075 151.888 474.075 143.831Z" fill="#343433"/>
<path d="M493.436 144.985C493.436 143.69 494.169 142.867 495.332 142.867C496.488 142.867 497.229 143.683 497.229 144.985V146.113C497.229 147.407 496.488 148.224 495.332 148.224C494.169 148.224 493.436 147.407 493.436 146.113V144.985ZM497.222 148.141V149.331H498.62V138.845H497.194V142.984H497.056C496.751 142.14 495.962 141.662 494.875 141.662C493.138 141.662 492.031 142.901 492.031 144.874V146.244C492.031 148.217 493.138 149.456 494.875 149.456C495.962 149.456 496.737 148.992 497.09 148.141H497.222ZM503.098 149.456C504.164 149.456 504.974 149.013 505.334 148.238H505.465V149.338H506.787V144.182C506.787 142.597 505.749 141.683 503.929 141.683C502.309 141.683 501.126 142.527 500.987 143.773H502.344C502.524 143.178 503.098 142.832 503.901 142.832C504.87 142.832 505.41 143.316 505.41 144.182V144.846L503.43 144.95C501.672 145.054 500.703 145.843 500.703 147.186C500.703 148.549 501.659 149.456 503.098 149.456ZM503.527 148.3C502.641 148.3 502.088 147.85 502.088 147.123C502.088 146.39 502.614 145.974 503.617 145.919L505.41 145.829V146.625C505.41 147.587 504.607 148.3 503.527 148.3ZM508.919 141.787L511.646 149.331H513.19L515.91 141.787H514.436L512.477 147.912H512.38L510.408 141.787H508.919ZM520.977 142.777C522.119 142.777 522.797 143.586 522.797 144.929H519.101C519.101 143.579 519.807 142.777 520.977 142.777ZM522.811 147.338C522.624 147.954 521.953 148.334 521.06 148.334C519.869 148.334 519.101 147.518 519.101 146.244V145.905H524.161V145.088C524.161 142.943 522.963 141.642 520.991 141.642C519.032 141.642 517.738 142.95 517.738 144.936V146.085C517.738 148.231 518.949 149.477 521.067 149.477C522.693 149.477 523.939 148.604 524.14 147.338H522.811ZM529.435 143.759L530.563 139.344H529.13L528.182 143.759H529.435ZM535.014 143.87C535.014 144.971 535.699 145.663 537.076 145.974L538.205 146.23C539.118 146.438 539.457 146.722 539.457 147.276C539.457 147.933 538.848 148.355 537.9 148.355C536.987 148.355 536.364 147.988 536.211 147.345H534.813C534.938 148.674 536.087 149.47 537.866 149.47C539.707 149.47 540.89 148.556 540.89 147.123C540.89 146.016 540.219 145.379 538.731 145.047L537.637 144.805C536.758 144.611 536.391 144.313 536.391 143.773C536.391 143.15 536.966 142.735 537.852 142.735C538.682 142.735 539.271 143.116 539.395 143.732H540.724C540.599 142.424 539.52 141.635 537.872 141.635C536.142 141.635 535.014 142.521 535.014 143.87ZM558.499 143.69C558.499 142.354 557.966 141.642 556.948 141.642C556.201 141.642 555.619 142.105 555.439 142.853H555.287C555.128 142.084 554.637 141.642 553.931 141.642C553.211 141.642 552.678 142.098 552.498 142.88H552.346V141.787H551.121V149.331H552.339V144.216C552.339 143.386 552.719 142.874 553.328 142.874C553.903 142.874 554.214 143.303 554.214 144.112V149.331H555.426V144.216C555.426 143.386 555.799 142.874 556.395 142.874C556.962 142.874 557.281 143.31 557.281 144.119V149.331H558.499V143.69ZM562.451 149.456C563.517 149.456 564.327 149.013 564.687 148.238H564.818V149.338H566.14V144.182C566.14 142.597 565.102 141.683 563.282 141.683C561.662 141.683 560.479 142.527 560.34 143.773H561.697C561.877 143.178 562.451 142.832 563.254 142.832C564.223 142.832 564.763 143.316 564.763 144.182V144.846L562.783 144.95C561.025 145.054 560.056 145.843 560.056 147.186C560.056 148.549 561.011 149.456 562.451 149.456ZM562.88 148.3C561.994 148.3 561.441 147.85 561.441 147.123C561.441 146.39 561.967 145.974 562.97 145.919L564.763 145.829V146.625C564.763 147.587 563.96 148.3 562.88 148.3ZM574.993 144.216C574.806 142.583 573.664 141.635 571.906 141.635C569.809 141.635 568.598 142.887 568.598 145.088V146.016C568.598 148.217 569.809 149.477 571.906 149.477C573.664 149.477 574.806 148.528 574.993 146.923H573.623C573.484 147.774 572.82 148.279 571.892 148.279C570.667 148.279 569.989 147.421 569.989 145.87V145.234C569.989 143.683 570.667 142.825 571.892 142.825C572.813 142.825 573.491 143.344 573.623 144.216H574.993Z" fill="white"/>
<rect x="30.3181" y="315.488" width="162.225" height="93.7126" rx="14.5688" stroke="#CCA000" stroke-width="2.3625"/>
<rect x="409.893" y="268.238" width="198.45" height="140.963" rx="14.5688" stroke="#CCA000" stroke-width="2.3625"/>
<path d="M144.899 337.144C144.899 334.534 147.015 332.419 149.624 332.419H231.55C234.159 332.419 236.275 334.534 236.275 337.144V352.144C236.275 354.753 234.159 356.869 231.55 356.869H149.624C147.015 356.869 144.899 354.753 144.899 352.144V337.144Z" fill="#CCA000"/>
<path d="M158.255 344.683C158.255 345.783 158.941 346.475 160.318 346.787L161.446 347.043C162.36 347.251 162.699 347.534 162.699 348.088C162.699 348.746 162.09 349.168 161.142 349.168C160.228 349.168 159.605 348.801 159.453 348.157H158.055C158.179 349.486 159.328 350.282 161.107 350.282C162.948 350.282 164.132 349.369 164.132 347.936C164.132 346.828 163.46 346.192 161.972 345.859L160.879 345.617C160 345.423 159.633 345.126 159.633 344.586C159.633 343.963 160.207 343.548 161.093 343.548C161.924 343.548 162.512 343.928 162.637 344.544H163.966C163.841 343.236 162.761 342.447 161.114 342.447C159.384 342.447 158.255 343.333 158.255 344.683ZM172.742 342.599H171.358V347.022C171.358 348.24 170.583 349.05 169.427 349.05C168.313 349.05 167.793 348.441 167.793 347.147V342.599H166.402V347.493C166.402 349.306 167.288 350.289 168.929 350.289C170.057 350.289 170.908 349.763 171.303 348.829H171.399V350.144H172.742V342.599ZM178.633 350.268C180.37 350.268 181.477 349.029 181.477 347.057V345.686C181.477 343.714 180.37 342.475 178.633 342.475C177.546 342.475 176.757 342.952 176.452 343.797H176.314V339.658H174.888V350.144H176.286V348.953H176.418C176.771 349.805 177.546 350.268 178.633 350.268ZM178.176 349.036C177.02 349.036 176.279 348.22 176.279 346.925V345.797C176.279 344.496 177.02 343.679 178.176 343.679C179.339 343.679 180.072 344.503 180.072 345.797V346.925C180.072 348.22 179.339 349.036 178.176 349.036ZM183.36 350.144H184.744V345.721C184.744 344.503 185.52 343.693 186.676 343.693C187.79 343.693 188.309 344.302 188.309 345.596V350.144H189.7V345.25C189.7 343.437 188.814 342.454 187.174 342.454C186.046 342.454 185.194 342.98 184.8 343.915H184.703V342.599H183.36V350.144ZM195.092 343.589C196.234 343.589 196.913 344.399 196.913 345.742H193.217C193.217 344.392 193.922 343.589 195.092 343.589ZM196.926 348.15C196.74 348.766 196.068 349.147 195.175 349.147C193.985 349.147 193.217 348.33 193.217 347.057V346.718H198.276V345.901C198.276 343.755 197.079 342.454 195.106 342.454C193.147 342.454 191.853 343.762 191.853 345.749V346.898C191.853 349.043 193.064 350.289 195.182 350.289C196.809 350.289 198.055 349.417 198.255 348.15H196.926ZM202.118 340.537V342.641H200.124V343.783H202.118V347.86C202.118 349.479 202.962 350.171 204.893 350.171C205.184 350.171 206.277 350.144 206.43 350.116V348.981C206.264 349.002 205.343 349.016 204.99 349.016C204.028 349.016 203.509 348.607 203.509 347.86V343.783H206.471V342.641H203.488V340.537H202.118Z" fill="white"/>
<circle cx="219.343" cy="344.644" r="5.11876" fill="white"/>
<path d="M363.037 300.131C363.037 297.522 365.153 295.406 367.762 295.406H449.687C452.297 295.406 454.412 297.522 454.412 300.131V315.131C454.412 317.741 452.297 319.856 449.687 319.856H367.762C365.153 319.856 363.037 317.741 363.037 315.131V300.131Z" fill="#CCA000"/>
<circle cx="379.968" cy="307.631" r="5.11876" fill="white"/>
<path d="M392.143 307.67C392.143 308.771 392.828 309.463 394.206 309.774L395.334 310.03C396.248 310.238 396.587 310.522 396.587 311.076C396.587 311.733 395.978 312.155 395.029 312.155C394.116 312.155 393.493 311.788 393.341 311.145H391.942C392.067 312.474 393.216 313.27 394.995 313.27C396.836 313.27 398.019 312.356 398.019 310.923C398.019 309.816 397.348 309.179 395.86 308.847L394.766 308.605C393.887 308.411 393.521 308.113 393.521 307.573C393.521 306.95 394.095 306.535 394.981 306.535C395.812 306.535 396.4 306.916 396.524 307.532H397.853C397.729 306.224 396.649 305.435 395.002 305.435C393.271 305.435 392.143 306.321 392.143 307.67ZM406.63 305.587H405.246V310.01C405.246 311.228 404.47 312.038 403.315 312.038C402.2 312.038 401.681 311.429 401.681 310.134V305.587H400.29V310.48C400.29 312.294 401.176 313.277 402.816 313.277C403.944 313.277 404.796 312.751 405.19 311.816H405.287V313.131H406.63V305.587ZM412.52 313.256C414.258 313.256 415.365 312.017 415.365 310.044V308.674C415.365 306.701 414.258 305.462 412.52 305.462C411.434 305.462 410.645 305.94 410.34 306.784H410.202V302.645H408.776V313.131H410.174V311.941H410.305C410.658 312.792 411.434 313.256 412.52 313.256ZM412.064 312.024C410.908 312.024 410.167 311.207 410.167 309.913V308.785C410.167 307.483 410.908 306.667 412.064 306.667C413.226 306.667 413.96 307.49 413.96 308.785V309.913C413.96 311.207 413.226 312.024 412.064 312.024ZM417.248 313.131H418.632V308.708C418.632 307.49 419.407 306.68 420.563 306.68C421.678 306.68 422.197 307.29 422.197 308.584V313.131H423.588V308.238C423.588 306.424 422.702 305.442 421.062 305.442C419.933 305.442 419.082 305.968 418.688 306.902H418.591V305.587H417.248V313.131ZM428.98 306.577C430.122 306.577 430.8 307.386 430.8 308.729H427.104C427.104 307.38 427.81 306.577 428.98 306.577ZM430.814 311.138C430.627 311.754 429.956 312.135 429.063 312.135C427.873 312.135 427.104 311.318 427.104 310.044V309.705H432.164V308.888C432.164 306.743 430.966 305.442 428.994 305.442C427.035 305.442 425.741 306.75 425.741 308.736V309.885C425.741 312.031 426.952 313.277 429.07 313.277C430.696 313.277 431.942 312.404 432.143 311.138H430.814ZM436.005 303.524V305.628H434.012V306.77H436.005V310.847C436.005 312.467 436.85 313.159 438.781 313.159C439.072 313.159 440.165 313.131 440.317 313.104V311.968C440.151 311.989 439.231 312.003 438.878 312.003C437.916 312.003 437.397 311.595 437.397 310.847V306.77H440.359V305.628H437.376V303.524H436.005Z" fill="white"/>
<path d="M113.334 185.906V177.144H111.922L109.029 179.04V180.494L111.804 178.687H111.915V185.906H109.05V187.131H111.915H113.334H116.068V185.906H113.334ZM117.446 180.009V180.051H118.809V180.009C118.809 178.895 119.543 178.154 120.65 178.154C121.751 178.154 122.471 178.819 122.471 179.843C122.471 180.597 122.152 181.123 120.858 182.528L117.515 186.141V187.131H124.049V185.872H119.536V185.754L121.765 183.38C123.391 181.677 123.89 180.819 123.89 179.767C123.89 178.085 122.595 176.936 120.692 176.936C118.788 176.936 117.446 178.21 117.446 180.009ZM131.261 181.269C131.282 181.546 131.289 181.836 131.289 182.141C131.289 184.743 130.576 186.128 129.233 186.128C128.333 186.128 127.717 185.512 127.406 184.335L131.261 181.269ZM127.198 182.992C127.177 182.722 127.171 182.439 127.171 182.141C127.171 179.532 127.883 178.154 129.233 178.154C130.133 178.154 130.749 178.77 131.053 179.954L127.198 182.992ZM129.233 176.922C126.997 176.922 125.752 178.784 125.752 182.141C125.752 185.491 126.997 187.353 129.233 187.353C131.469 187.353 132.715 185.491 132.715 182.141C132.715 178.784 131.469 176.922 129.233 176.922ZM141.394 181.49C141.394 180.154 140.861 179.442 139.844 179.442C139.096 179.442 138.515 179.905 138.335 180.653H138.183C138.024 179.885 137.532 179.442 136.826 179.442C136.106 179.442 135.573 179.898 135.393 180.68H135.241V179.587H134.016V187.131H135.234V182.016C135.234 181.186 135.615 180.674 136.224 180.674C136.798 180.674 137.11 181.103 137.11 181.912V187.131H138.321V182.016C138.321 181.186 138.695 180.674 139.29 180.674C139.858 180.674 140.176 181.11 140.176 181.919V187.131H141.394V181.49ZM143.346 181.67C143.346 182.771 144.032 183.463 145.409 183.774L146.537 184.03C147.451 184.238 147.79 184.522 147.79 185.076C147.79 185.733 147.181 186.155 146.233 186.155C145.319 186.155 144.696 185.788 144.544 185.145H143.146C143.27 186.474 144.419 187.27 146.198 187.27C148.039 187.27 149.223 186.356 149.223 184.923C149.223 183.816 148.551 183.179 147.063 182.847L145.97 182.605C145.091 182.411 144.724 182.113 144.724 181.573C144.724 180.95 145.298 180.535 146.184 180.535C147.015 180.535 147.603 180.916 147.728 181.532H149.057C148.932 180.224 147.852 179.435 146.205 179.435C144.475 179.435 143.346 180.321 143.346 181.67Z" fill="#ABA9A7"/>
<path d="M305.917 98.3443C308.007 98.3443 309.412 96.96 309.412 94.9043C309.412 92.9456 308.125 91.5821 306.277 91.5821C305.384 91.5821 304.657 91.9005 304.187 92.5026H304.069L304.332 89.4088H308.838V88.156H303.19L302.699 93.8315H304.069C304.45 93.1532 305.135 92.7726 305.979 92.7726C307.198 92.7726 308.021 93.6516 308.021 94.9389C308.021 96.2263 307.205 97.0846 305.979 97.0846C304.879 97.0846 304.048 96.4132 303.931 95.4373H302.546C302.63 97.1676 303.993 98.3443 305.917 98.3443ZM318.161 92.5026C318.161 91.1668 317.628 90.4539 316.611 90.4539C315.863 90.4539 315.282 90.9176 315.102 91.6651H314.95C314.791 90.8969 314.299 90.4539 313.593 90.4539C312.873 90.4539 312.34 90.9107 312.161 91.6928H312.008V90.5992H310.783V98.1436H312.001V93.0286C312.001 92.1981 312.382 91.6859 312.991 91.6859C313.566 91.6859 313.877 92.115 313.877 92.9248V98.1436H315.088V93.0286C315.088 92.1981 315.462 91.6859 316.057 91.6859C316.625 91.6859 316.943 92.1219 316.943 92.9317V98.1436H318.161V92.5026ZM320.113 92.6826C320.113 93.7831 320.799 94.4752 322.176 94.7867L323.304 95.0428C324.218 95.2504 324.557 95.5342 324.557 96.0879C324.557 96.7454 323.948 97.1676 323 97.1676C322.086 97.1676 321.463 96.8008 321.311 96.1571H319.913C320.037 97.486 321.186 98.282 322.965 98.282C324.806 98.282 325.99 97.3684 325.99 95.9356C325.99 94.8282 325.318 94.1914 323.83 93.8592L322.737 93.617C321.858 93.4232 321.491 93.1255 321.491 92.5857C321.491 91.9628 322.065 91.5475 322.951 91.5475C323.782 91.5475 324.37 91.9281 324.495 92.5441H325.824C325.699 91.236 324.619 90.447 322.972 90.447C321.242 90.447 320.113 91.3329 320.113 92.6826Z" fill="#ABA9A7"/>
<path d="M327.601 164.177L327.643 164.181L327.775 162.824L327.734 162.82C326.625 162.711 325.959 161.909 326.067 160.807C326.174 159.712 326.905 159.06 327.925 159.159C328.675 159.233 329.168 159.601 330.441 161.025L333.712 164.704L334.697 164.8L335.332 158.297L334.078 158.175L333.639 162.666L333.522 162.655L331.376 160.206C329.84 158.421 329.034 157.842 327.987 157.74C326.313 157.576 325.043 158.753 324.858 160.647C324.673 162.542 325.81 164.002 327.601 164.177ZM330.579 148.924C329.25 148.794 328.488 149.256 328.39 150.268C328.317 151.012 328.722 151.636 329.448 151.888L329.434 152.039C328.654 152.123 328.165 152.569 328.096 153.272C328.026 153.988 328.429 154.563 329.19 154.818L329.175 154.97L328.087 154.863L327.968 156.083L335.476 156.816L335.595 155.603L330.504 155.106C329.677 155.026 329.205 154.597 329.264 153.991C329.32 153.419 329.777 153.151 330.583 153.229L335.777 153.737L335.895 152.531L330.804 152.034C329.978 151.953 329.504 151.531 329.562 150.939C329.617 150.374 330.082 150.1 330.888 150.178L336.075 150.685L336.194 149.473L330.579 148.924ZM330.948 146.999C332.043 147.106 332.799 146.491 333.243 145.151L333.607 144.053C333.903 143.164 334.218 142.854 334.769 142.907C335.424 142.971 335.785 143.619 335.693 144.562C335.604 145.472 335.178 146.056 334.523 146.145L334.387 147.536C335.721 147.542 336.625 146.475 336.798 144.705C336.977 142.873 336.183 141.606 334.757 141.467C333.655 141.359 332.956 141.965 332.481 143.414L332.133 144.479C331.855 145.335 331.523 145.671 330.986 145.619C330.366 145.558 330.008 144.946 330.094 144.064C330.175 143.238 330.611 142.689 331.236 142.625L331.365 141.302C330.051 141.299 329.161 142.297 329.001 143.937C328.833 145.659 329.605 146.868 330.948 146.999Z" fill="#ABA9A7"/>
<path d="M281.337 348.175L275.074 342.047L274.087 343.056L273.419 346.45L274.458 347.467L275.108 344.22L275.185 344.141L280.345 349.189L278.341 351.237L279.217 352.094L281.221 350.046L282.213 349.032L284.125 347.078L283.249 346.221L281.337 348.175ZM287.488 343.928C288.95 342.434 288.943 340.462 287.473 339.024C286.073 337.654 284.198 337.621 282.906 338.942C282.282 339.58 282.001 340.322 282.102 341.079L282.02 341.164L279.992 338.812L283.144 335.591L282.248 334.715L278.298 338.752L282.011 343.072L282.97 342.093C282.751 341.346 282.958 340.59 283.549 339.987C284.401 339.116 285.605 339.142 286.525 340.043C287.445 340.943 287.488 342.127 286.631 343.003C285.861 343.789 284.801 343.913 284.021 343.315L283.053 344.304C284.347 345.455 286.142 345.303 287.488 343.928ZM291.875 331.091C290.921 330.157 290.038 330.039 289.327 330.766C288.804 331.3 288.729 332.04 289.137 332.692L289.031 332.801C288.37 332.377 287.71 332.419 287.216 332.923C286.713 333.438 286.667 334.138 287.1 334.814L286.993 334.923L286.212 334.158L285.355 335.033L290.747 340.31L291.599 339.439L287.943 335.862C287.35 335.281 287.25 334.651 287.676 334.215C288.078 333.805 288.602 333.882 289.181 334.448L292.911 338.098L293.758 337.232L290.102 333.655C289.509 333.074 289.404 332.449 289.82 332.024C290.217 331.618 290.751 331.695 291.33 332.262L295.055 335.907L295.907 335.036L291.875 331.091ZM293.369 329.821C294.156 330.591 295.13 330.585 296.316 329.819L297.288 329.191C298.075 328.684 298.515 328.64 298.911 329.027C299.381 329.487 299.257 330.217 298.594 330.895C297.955 331.548 297.257 331.737 296.69 331.395L295.712 332.395C296.749 333.235 298.122 332.971 299.366 331.699C300.653 330.383 300.828 328.898 299.804 327.896C299.013 327.122 298.088 327.156 296.81 327.988L295.872 328.6C295.118 329.093 294.649 329.147 294.263 328.769C293.818 328.333 293.923 327.632 294.543 326.999C295.123 326.406 295.807 326.251 296.334 326.593L297.264 325.643C296.242 324.817 294.923 325.037 293.77 326.215C292.56 327.451 292.405 328.877 293.369 329.821Z" fill="#ABA9A7"/>
<path d="M291.672 270.887L291.654 270.924L292.875 271.531L292.893 271.494C293.389 270.496 294.376 270.159 295.367 270.651C296.353 271.14 296.702 272.056 296.247 272.973C295.911 273.649 295.392 273.978 293.608 274.661L289.007 276.411L288.567 277.297L294.419 280.203L294.979 279.075L290.937 277.068L290.99 276.962L294.041 275.827C296.256 275.025 297.084 274.478 297.551 273.536C298.299 272.03 297.651 270.425 295.946 269.578C294.242 268.732 292.473 269.275 291.672 270.887ZM299.998 282.973L301.195 283.567L302.106 281.732L303.42 282.385L303.959 281.3L302.639 280.644L303.867 278.171L302.707 277.595L301.479 280.069L298.764 278.721L298.807 278.634L304.645 274.129L303.337 273.48L297.372 278.099L296.861 279.128L300.91 281.138L299.998 282.973ZM312.463 282.865C313.057 281.668 312.897 280.793 311.986 280.34C311.316 280.008 310.589 280.164 310.096 280.754L309.959 280.686C310.158 279.927 309.915 279.312 309.283 278.998C308.638 278.678 307.958 278.85 307.449 279.47L307.312 279.403L307.799 278.423L306.701 277.878L303.346 284.636L304.437 285.177L306.712 280.596C307.082 279.852 307.65 279.563 308.196 279.834C308.71 280.089 308.798 280.612 308.438 281.337L306.117 286.012L307.202 286.55L309.477 281.969C309.846 281.225 310.409 280.933 310.942 281.197C311.45 281.45 311.542 281.982 311.181 282.707L308.864 287.375L309.955 287.917L312.463 282.865ZM314.132 283.894C313.642 284.88 313.948 285.804 315.043 286.696L315.94 287.427C316.666 288.019 316.844 288.424 316.597 288.92C316.305 289.509 315.572 289.616 314.722 289.195C313.904 288.788 313.509 288.183 313.659 287.538L312.407 286.917C311.927 288.162 312.602 289.386 314.196 290.177C315.845 290.996 317.311 290.704 317.948 289.421C318.441 288.429 318.123 287.56 316.938 286.601L316.066 285.897C315.365 285.333 315.168 284.903 315.409 284.42C315.686 283.862 316.385 283.745 317.178 284.139C317.922 284.509 318.28 285.111 318.117 285.718L319.308 286.309C319.778 285.082 319.162 283.895 317.686 283.163C316.137 282.393 314.732 282.685 314.132 283.894Z" fill="#ABA9A7"/>
</svg>
